<svg xmlns="http://www.w3.org/2000/svg" xmlns:xlink="http://www.w3.org/1999/xlink" width="1080" zoomAndPan="magnify" viewBox="0 0 810 809.999993" height="1080" preserveAspectRatio="xMidYMid meet" version="1.0"><defs><g/><clipPath id="7ac3db23c1"><path d="M 218.199219 166.789062 L 541.859375 166.789062 L 541.859375 454.789062 L 218.199219 454.789062 Z M 218.199219 166.789062 " clip-rule="nonzero"/></clipPath><clipPath id="c9e9e457d5"><path d="M 313.246094 380.261719 C 312.828125 383.242188 312.625 386.207031 312.625 389.136719 C 310.363281 385.71875 308.433594 382.054688 306.859375 378.175781 C 304.382812 372.066406 301.859375 362.800781 303.933594 353.375 C 305.441406 346.515625 309.304688 339.765625 315.421875 333.304688 C 318.136719 330.433594 321.300781 327.832031 324.640625 325.070312 C 326.464844 323.570312 328.324219 322.039062 330.175781 320.414062 C 330.226562 327.757812 328.238281 336.683594 324.234375 347.058594 C 323.359375 349.332031 322.433594 351.597656 321.511719 353.863281 C 318.089844 362.269531 314.546875 370.960938 313.246094 380.261719 Z M 407.117188 447.964844 C 380.09375 447.964844 355.011719 439.53125 334.339844 425.167969 L 334.382812 425.117188 C 322.996094 414.640625 317.621094 398.226562 320.003906 381.210938 C 321.1875 372.746094 324.414062 364.824219 327.828125 356.4375 C 328.769531 354.132812 329.707031 351.832031 330.601562 349.519531 C 336.445312 334.378906 338.269531 322.265625 336.179688 312.472656 L 334.839844 306.203125 L 330.386719 310.8125 C 327.179688 314.140625 323.683594 317.019531 320.304688 319.804688 C 316.789062 322.699219 313.476562 325.4375 310.46875 328.613281 C 303.488281 335.984375 299.046875 343.824219 297.269531 351.914062 C 295.332031 360.726562 296.460938 370.695312 300.539062 380.742188 C 303.730469 388.609375 308.234375 395.675781 313.9375 401.753906 C 314.546875 404.617188 315.367188 407.410156 316.382812 410.097656 C 309.589844 403.25 303.566406 395.636719 298.449219 387.402344 L 298.527344 387.367188 C 297.148438 385.40625 291.992188 375.460938 291.992188 375.460938 C 286.765625 343.660156 294.605469 327.109375 298.960938 317.527344 C 303.316406 307.941406 318.125 272.660156 324.65625 266.5625 C 331.1875 260.464844 362.953125 247.277344 371.257812 225.613281 C 374.851562 216.242188 376.152344 205.542969 376.386719 195.859375 C 386.300781 193.4375 396.597656 192.171875 407.117188 192.171875 C 477.628906 192.171875 534.992188 249.546875 534.992188 320.066406 C 534.992188 390.59375 477.628906 447.964844 407.117188 447.964844 Z M 286.253906 279.574219 C 277.71875 268.832031 268.683594 253.042969 274.65625 226.050781 C 276.652344 217.03125 277.957031 209.292969 278.578125 202.785156 C 285.558594 210.972656 292.894531 221.316406 295.460938 230.546875 C 301.753906 253.152344 295.582031 267.648438 290.621094 279.296875 L 290.507812 279.570312 C 289.953125 280.871094 289.457031 282.300781 289.019531 283.816406 C 288.210938 282.296875 287.289062 280.871094 286.253906 279.574219 Z M 287.710938 327.566406 C 287.359375 328.210938 287.011719 328.851562 286.664062 329.492188 C 286.433594 331.429688 286.179688 333.386719 285.894531 335.386719 C 284.621094 344.300781 284.511719 351.769531 284.886719 357.675781 C 281.222656 345.777344 279.242188 333.152344 279.242188 320.066406 C 279.242188 309.101562 280.628906 298.265625 283.359375 287.761719 C 287.628906 296.457031 288.910156 310.992188 286.664062 329.492188 C 287.011719 328.851562 287.359375 328.210938 287.710938 327.566406 Z M 304.679688 242.890625 L 304.972656 243.113281 C 311.339844 234.671875 318.582031 227.179688 326.523438 220.703125 C 317.820312 237.1875 320.597656 255.703125 319.09375 261.457031 C 317.351562 268.121094 308.609375 282.851562 303.234375 294.5625 C 298.917969 303.96875 295.257812 311.035156 294.128906 313.273438 C 293.875 313.773438 293.734375 314.042969 293.734375 314.042969 C 292.671875 310.972656 292.527344 292.238281 296.78125 282.242188 C 300.957031 272.433594 306.25 260.175781 304.679688 242.890625 Z M 407.117188 185.347656 C 396.613281 185.347656 386.316406 186.539062 376.382812 188.839844 C 376.066406 176.257812 374.261719 166.789062 374.261719 166.789062 C 371.957031 172.167969 367.832031 183.203125 348.953125 198.4375 C 331.582031 206.746094 316.039062 218.828125 303.363281 234.167969 C 302.988281 232.398438 302.558594 230.582031 302.035156 228.714844 C 296.15625 207.589844 270.679688 184.722656 270.679688 184.722656 C 273.074219 189.90625 272.917969 202.320312 267.992188 224.578125 C 262.515625 249.335938 268.25 266.40625 278.351562 280.433594 C 274.417969 293.226562 272.417969 306.558594 272.417969 320.066406 C 272.417969 338.320312 276.074219 355.738281 282.683594 371.625 C 280.117188 369.90625 277.171875 366.539062 275.46875 359.9375 C 271.984375 346.4375 265.234375 326.070312 251.734375 311.40625 C 237.546875 295.996094 218.199219 290.351562 218.199219 290.351562 C 227.78125 300.660156 219.699219 320.320312 230.683594 346.980469 C 240.554688 370.9375 271 373.273438 279.363281 377.203125 C 283.789062 379.285156 286.894531 382.175781 288.957031 384.691406 C 311.871094 426.429688 356.242188 454.789062 407.117188 454.789062 C 481.390625 454.789062 541.816406 394.355469 541.816406 320.066406 C 541.816406 245.785156 481.390625 185.347656 407.117188 185.347656 Z M 407.117188 185.347656 " clip-rule="nonzero"/></clipPath><clipPath id="57fe1e17b6"><path d="M 313.246094 380.261719 C 312.828125 383.242188 312.625 386.207031 312.625 389.136719 C 310.363281 385.71875 308.433594 382.054688 306.859375 378.175781 C 304.382812 372.066406 301.859375 362.800781 303.933594 353.375 C 305.441406 346.515625 309.304688 339.765625 315.421875 333.304688 C 318.136719 330.433594 321.300781 327.832031 324.640625 325.070312 C 326.464844 323.570312 328.324219 322.039062 330.175781 320.414062 C 330.226562 327.757812 328.238281 336.683594 324.234375 347.058594 C 323.359375 349.332031 322.433594 351.597656 321.511719 353.863281 C 318.089844 362.269531 314.546875 370.960938 313.246094 380.261719 Z M 407.117188 447.964844 C 380.09375 447.964844 355.011719 439.53125 334.339844 425.167969 L 334.382812 425.117188 C 322.996094 414.640625 317.621094 398.226562 320.003906 381.210938 C 321.1875 372.746094 324.414062 364.824219 327.828125 356.4375 C 328.769531 354.132812 329.707031 351.832031 330.601562 349.519531 C 336.445312 334.378906 338.269531 322.265625 336.179688 312.472656 L 334.839844 306.203125 L 330.386719 310.8125 C 327.179688 314.140625 323.683594 317.019531 320.304688 319.804688 C 316.789062 322.699219 313.476562 325.4375 310.46875 328.613281 C 303.488281 335.984375 299.046875 343.824219 297.269531 351.914062 C 295.332031 360.726562 296.460938 370.695312 300.539062 380.742188 C 303.730469 388.609375 308.234375 395.675781 313.9375 401.753906 C 314.546875 404.617188 315.367188 407.410156 316.382812 410.097656 C 309.589844 403.25 303.566406 395.636719 298.449219 387.402344 L 298.527344 387.367188 C 297.148438 385.40625 291.992188 375.460938 291.992188 375.460938 C 286.765625 343.660156 294.605469 327.109375 298.960938 317.527344 C 303.316406 307.941406 318.125 272.660156 324.65625 266.5625 C 331.1875 260.464844 362.953125 247.277344 371.257812 225.613281 C 374.851562 216.242188 376.152344 205.542969 376.386719 195.859375 C 386.300781 193.4375 396.597656 192.171875 407.117188 192.171875 C 477.628906 192.171875 534.992188 249.546875 534.992188 320.066406 C 534.992188 390.59375 477.628906 447.964844 407.117188 447.964844 Z M 286.253906 279.574219 C 277.71875 268.832031 268.683594 253.042969 274.65625 226.050781 C 276.652344 217.03125 277.957031 209.292969 278.578125 202.785156 C 285.558594 210.972656 292.894531 221.316406 295.460938 230.546875 C 301.753906 253.152344 295.582031 267.648438 290.621094 279.296875 L 290.507812 279.570312 C 289.953125 280.871094 289.457031 282.300781 289.019531 283.816406 C 288.210938 282.296875 287.289062 280.871094 286.253906 279.574219 Z M 287.710938 327.566406 C 287.359375 328.210938 287.011719 328.851562 286.664062 329.492188 C 286.433594 331.429688 286.179688 333.386719 285.894531 335.386719 C 284.621094 344.300781 284.511719 351.769531 284.886719 357.675781 C 281.222656 345.777344 279.242188 333.152344 279.242188 320.066406 C 279.242188 309.101562 280.628906 298.265625 283.359375 287.761719 C 287.628906 296.457031 288.910156 310.992188 286.664062 329.492188 C 287.011719 328.851562 287.359375 328.210938 287.710938 327.566406 Z M 304.679688 242.890625 L 304.972656 243.113281 C 311.339844 234.671875 318.582031 227.179688 326.523438 220.703125 C 317.820312 237.1875 320.597656 255.703125 319.09375 261.457031 C 317.351562 268.121094 308.609375 282.851562 303.234375 294.5625 C 298.917969 303.96875 295.257812 311.035156 294.128906 313.273438 C 293.875 313.773438 293.734375 314.042969 293.734375 314.042969 C 292.671875 310.972656 292.527344 292.238281 296.78125 282.242188 C 300.957031 272.433594 306.25 260.175781 304.679688 242.890625 Z M 407.117188 185.347656 C 396.613281 185.347656 386.316406 186.539062 376.382812 188.839844 C 376.066406 176.257812 374.261719 166.789062 374.261719 166.789062 C 371.957031 172.167969 367.832031 183.203125 348.953125 198.4375 C 331.582031 206.746094 316.039062 218.828125 303.363281 234.167969 C 302.988281 232.398438 302.558594 230.582031 302.035156 228.714844 C 296.15625 207.589844 270.679688 184.722656 270.679688 184.722656 C 273.074219 189.90625 272.917969 202.320312 267.992188 224.578125 C 262.515625 249.335938 268.25 266.40625 278.351562 280.433594 C 274.417969 293.226562 272.417969 306.558594 272.417969 320.066406 C 272.417969 338.320312 276.074219 355.738281 282.683594 371.625 C 280.117188 369.90625 277.171875 366.539062 275.46875 359.9375 C 271.984375 346.4375 265.234375 326.070312 251.734375 311.40625 C 237.546875 295.996094 218.199219 290.351562 218.199219 290.351562 C 227.78125 300.660156 219.699219 320.320312 230.683594 346.980469 C 240.554688 370.9375 271 373.273438 279.363281 377.203125 C 283.789062 379.285156 286.894531 382.175781 288.957031 384.691406 C 311.871094 426.429688 356.242188 454.789062 407.117188 454.789062 C 481.390625 454.789062 541.816406 394.355469 541.816406 320.066406 C 541.816406 245.785156 481.390625 185.347656 407.117188 185.347656 " clip-rule="nonzero"/></clipPath><clipPath id="ccc0a04451"><path d="M 299.101562 594.941406 L 666.503906 382.789062 L 460.910156 26.636719 L 93.511719 238.789062 Z M 299.101562 594.941406 " clip-rule="nonzero"/></clipPath><linearGradient x1="-0.153559" gradientTransform="matrix(-160.043197, -277.248108, 277.202938, -160.069259, 460.70419, 444.860456)" y1="0" x2="1.131041" gradientUnits="userSpaceOnUse" y2="0" id="710093dc5d"><stop stop-opacity="1" stop-color="rgb(94.898987%, 94.499207%, 58.799744%)" offset="0"/><stop stop-opacity="1" stop-color="rgb(94.898987%, 94.499207%, 58.799744%)" offset="0.0625"/><stop stop-opacity="1" stop-color="rgb(94.898987%, 94.499207%, 58.799744%)" offset="0.09375"/><stop stop-opacity="1" stop-color="rgb(94.898987%, 94.499207%, 58.799744%)" offset="0.109375"/><stop stop-opacity="1" stop-color="rgb(94.869995%, 94.470215%, 58.799744%)" offset="0.117188"/><stop stop-opacity="1" stop-color="rgb(94.650269%, 94.229126%, 58.578491%)" offset="0.121094"/><stop stop-opacity="1" stop-color="rgb(94.459534%, 94.018555%, 58.358765%)" offset="0.125"/><stop stop-opacity="1" stop-color="rgb(94.067383%, 93.447876%, 57.817078%)" offset="0.128906"/><stop stop-opacity="1" stop-color="rgb(93.676758%, 92.877197%, 57.276917%)" offset="0.132813"/><stop stop-opacity="1" stop-color="rgb(93.286133%, 92.533875%, 56.886292%)" offset="0.136719"/><stop stop-opacity="1" stop-color="rgb(92.895508%, 92.192078%, 56.495667%)" offset="0.140625"/><stop stop-opacity="1" stop-color="rgb(92.504883%, 91.51001%, 55.854797%)" offset="0.144531"/><stop stop-opacity="1" stop-color="rgb(92.114258%, 90.829468%, 55.213928%)" offset="0.148438"/><stop stop-opacity="1" stop-color="rgb(91.555786%, 90.248108%, 54.823303%)" offset="0.152344"/><stop stop-opacity="1" stop-color="rgb(90.99884%, 89.666748%, 54.432678%)" offset="0.15625"/><stop stop-opacity="1" stop-color="rgb(90.750122%, 88.908386%, 54.042053%)" offset="0.160156"/><stop stop-opacity="1" stop-color="rgb(90.50293%, 88.15155%, 53.651428%)" offset="0.164063"/><stop stop-opacity="1" stop-color="rgb(89.935303%, 87.794495%, 53.063965%)" offset="0.167969"/><stop stop-opacity="1" stop-color="rgb(89.369202%, 87.438965%, 52.476501%)" offset="0.171875"/><stop stop-opacity="1" stop-color="rgb(88.978577%, 86.857605%, 52.131653%)" offset="0.175781"/><stop stop-opacity="1" stop-color="rgb(88.587952%, 86.276245%, 51.78833%)" offset="0.179688"/><stop stop-opacity="1" stop-color="rgb(88.392639%, 85.690308%, 51.396179%)" offset="0.183594"/><stop stop-opacity="1" stop-color="rgb(88.198853%, 85.105896%, 51.005554%)" offset="0.1875"/><stop stop-opacity="1" stop-color="rgb(87.811279%, 84.42688%, 50.364685%)" offset="0.191406"/><stop stop-opacity="1" stop-color="rgb(87.425232%, 83.74939%, 49.723816%)" offset="0.195313"/><stop stop-opacity="1" stop-color="rgb(87.033081%, 83.174133%, 49.133301%)" offset="0.199219"/><stop stop-opacity="1" stop-color="rgb(86.642456%, 82.600403%, 48.542786%)" offset="0.203125"/><stop stop-opacity="1" stop-color="rgb(86.032104%, 82.061768%, 48.336792%)" offset="0.207031"/><stop stop-opacity="1" stop-color="rgb(85.423279%, 81.523132%, 48.132324%)" offset="0.210938"/><stop stop-opacity="1" stop-color="rgb(84.851074%, 80.741882%, 47.595215%)" offset="0.214844"/><stop stop-opacity="1" stop-color="rgb(84.280396%, 79.960632%, 47.059631%)" offset="0.21875"/><stop stop-opacity="1" stop-color="rgb(83.688354%, 79.179382%, 46.478271%)" offset="0.222656"/><stop stop-opacity="1" stop-color="rgb(83.097839%, 78.398132%, 45.896912%)" offset="0.226563"/><stop stop-opacity="1" stop-color="rgb(82.707214%, 77.926636%, 45.256042%)" offset="0.230469"/><stop stop-opacity="1" stop-color="rgb(82.316589%, 77.455139%, 44.616699%)" offset="0.234375"/><stop stop-opacity="1" stop-color="rgb(81.925964%, 76.74408%, 44.192505%)" offset="0.238281"/><stop stop-opacity="1" stop-color="rgb(81.535339%, 76.034546%, 43.769836%)" offset="0.242188"/><stop stop-opacity="1" stop-color="rgb(81.143188%, 75.444031%, 43.217468%)" offset="0.246094"/><stop stop-opacity="1" stop-color="rgb(80.752563%, 74.853516%, 42.6651%)" offset="0.25"/><stop stop-opacity="1" stop-color="rgb(80.361938%, 74.447632%, 42.318726%)" offset="0.253906"/><stop stop-opacity="1" stop-color="rgb(79.971313%, 74.043274%, 41.972351%)" offset="0.257813"/><stop stop-opacity="1" stop-color="rgb(79.580688%, 73.46344%, 41.575623%)" offset="0.261719"/><stop stop-opacity="1" stop-color="rgb(79.190063%, 72.883606%, 41.18042%)" offset="0.265625"/><stop stop-opacity="1" stop-color="rgb(78.594971%, 72.296143%, 40.544128%)" offset="0.269531"/><stop stop-opacity="1" stop-color="rgb(77.999878%, 71.708679%, 39.907837%)" offset="0.273438"/><stop stop-opacity="1" stop-color="rgb(77.735901%, 71.116638%, 39.517212%)" offset="0.277344"/><stop stop-opacity="1" stop-color="rgb(77.471924%, 70.526123%, 39.126587%)" offset="0.28125"/><stop stop-opacity="1" stop-color="rgb(76.957703%, 70.108032%, 38.735962%)" offset="0.285156"/><stop stop-opacity="1" stop-color="rgb(76.445007%, 69.691467%, 38.345337%)" offset="0.289063"/><stop stop-opacity="1" stop-color="rgb(76.054382%, 68.927002%, 37.957764%)" offset="0.292969"/><stop stop-opacity="1" stop-color="rgb(75.663757%, 68.164062%, 37.571716%)" offset="0.296875"/><stop stop-opacity="1" stop-color="rgb(75.473022%, 67.622375%, 37.226868%)" offset="0.300781"/><stop stop-opacity="1" stop-color="rgb(75.282288%, 67.082214%, 36.882019%)" offset="0.304688"/><stop stop-opacity="1" stop-color="rgb(74.691772%, 66.491699%, 36.291504%)" offset="0.308594"/><stop stop-opacity="1" stop-color="rgb(74.101257%, 65.901184%, 35.700989%)" offset="0.3125"/><stop stop-opacity="1" stop-color="rgb(73.81897%, 65.419006%, 35.418701%)" offset="0.316406"/><stop stop-opacity="1" stop-color="rgb(73.538208%, 64.938354%, 35.137939%)" offset="0.320312"/><stop stop-opacity="1" stop-color="rgb(72.994995%, 64.356995%, 34.587097%)" offset="0.324219"/><stop stop-opacity="1" stop-color="rgb(72.453308%, 63.775635%, 34.037781%)" offset="0.328125"/><stop stop-opacity="1" stop-color="rgb(72.103882%, 63.064575%, 33.44574%)" offset="0.332031"/><stop stop-opacity="1" stop-color="rgb(71.755981%, 62.355042%, 32.855225%)" offset="0.335938"/><stop stop-opacity="1" stop-color="rgb(71.363831%, 61.950684%, 32.513428%)" offset="0.339844"/><stop stop-opacity="1" stop-color="rgb(70.973206%, 61.547852%, 32.173157%)" offset="0.34375"/><stop stop-opacity="1" stop-color="rgb(70.581055%, 60.96344%, 31.781006%)" offset="0.347656"/><stop stop-opacity="1" stop-color="rgb(70.19043%, 60.380554%, 31.390381%)" offset="0.351562"/><stop stop-opacity="1" stop-color="rgb(69.549561%, 59.701538%, 30.949402%)" offset="0.355469"/><stop stop-opacity="1" stop-color="rgb(68.910217%, 59.022522%, 30.509949%)" offset="0.359375"/><stop stop-opacity="1" stop-color="rgb(68.519592%, 58.448792%, 30.119324%)" offset="0.363281"/><stop stop-opacity="1" stop-color="rgb(68.128967%, 57.876587%, 29.728699%)" offset="0.367188"/><stop stop-opacity="1" stop-color="rgb(67.78717%, 57.362366%, 29.338074%)" offset="0.371094"/><stop stop-opacity="1" stop-color="rgb(67.446899%, 56.848145%, 28.947449%)" offset="0.375"/><stop stop-opacity="1" stop-color="rgb(67.056274%, 56.239319%, 28.756714%)" offset="0.378906"/><stop stop-opacity="1" stop-color="rgb(66.665649%, 55.632019%, 28.565979%)" offset="0.382813"/><stop stop-opacity="1" stop-color="rgb(66.275024%, 55.058289%, 28.024292%)" offset="0.386719"/><stop stop-opacity="1" stop-color="rgb(65.884399%, 54.484558%, 27.484131%)" offset="0.390625"/><stop stop-opacity="1" stop-color="rgb(65.44342%, 53.843689%, 27.043152%)" offset="0.394531"/><stop stop-opacity="1" stop-color="rgb(65.002441%, 53.20282%, 26.602173%)" offset="0.398438"/><stop stop-opacity="1" stop-color="rgb(64.450073%, 52.690125%, 26.249695%)" offset="0.402344"/><stop stop-opacity="1" stop-color="rgb(63.899231%, 52.178955%, 25.898743%)" offset="0.40625"/><stop stop-opacity="1" stop-color="rgb(63.919067%, 52.009583%, 25.898743%)" offset="0.421875"/><stop stop-opacity="1" stop-color="rgb(64.331055%, 52.380371%, 26.11084%)" offset="0.425781"/><stop stop-opacity="1" stop-color="rgb(64.72168%, 52.922058%, 26.322937%)" offset="0.429688"/><stop stop-opacity="1" stop-color="rgb(65.313721%, 53.514099%, 26.713562%)" offset="0.433594"/><stop stop-opacity="1" stop-color="rgb(65.905762%, 54.10614%, 27.105713%)" offset="0.4375"/><stop stop-opacity="1" stop-color="rgb(66.345215%, 54.745483%, 27.494812%)" offset="0.441406"/><stop stop-opacity="1" stop-color="rgb(66.786194%, 55.386353%, 27.885437%)" offset="0.445313"/><stop stop-opacity="1" stop-color="rgb(67.167664%, 55.976868%, 28.442383%)" offset="0.449219"/><stop stop-opacity="1" stop-color="rgb(67.550659%, 56.567383%, 28.999329%)" offset="0.453125"/><stop stop-opacity="1" stop-color="rgb(67.900085%, 56.976318%, 29.223633%)" offset="0.457031"/><stop stop-opacity="1" stop-color="rgb(68.249512%, 57.38678%, 29.449463%)" offset="0.460938"/><stop stop-opacity="1" stop-color="rgb(68.655396%, 57.923889%, 29.840088%)" offset="0.464844"/><stop stop-opacity="1" stop-color="rgb(69.061279%, 58.460999%, 30.230713%)" offset="0.46875"/><stop stop-opacity="1" stop-color="rgb(69.638062%, 59.237671%, 30.622864%)" offset="0.472656"/><stop stop-opacity="1" stop-color="rgb(70.21637%, 60.015869%, 31.016541%)" offset="0.476563"/><stop stop-opacity="1" stop-color="rgb(70.654297%, 60.653687%, 31.454468%)" offset="0.480469"/><stop stop-opacity="1" stop-color="rgb(71.09375%, 61.29303%, 31.893921%)" offset="0.484375"/><stop stop-opacity="1" stop-color="rgb(71.484375%, 61.712646%, 32.272339%)" offset="0.488281"/><stop stop-opacity="1" stop-color="rgb(71.875%, 62.132263%, 32.650757%)" offset="0.492188"/><stop stop-opacity="1" stop-color="rgb(72.415161%, 62.672424%, 33.203125%)" offset="0.496094"/><stop stop-opacity="1" stop-color="rgb(72.956848%, 63.214111%, 33.757019%)" offset="0.5"/><stop stop-opacity="1" stop-color="rgb(73.347473%, 63.975525%, 34.347534%)" offset="0.503906"/><stop stop-opacity="1" stop-color="rgb(73.738098%, 64.738464%, 34.938049%)" offset="0.507812"/><stop stop-opacity="1" stop-color="rgb(74.128723%, 65.129089%, 35.128784%)" offset="0.511719"/><stop stop-opacity="1" stop-color="rgb(74.520874%, 65.519714%, 35.319519%)" offset="0.515625"/><stop stop-opacity="1" stop-color="rgb(74.960327%, 66.160583%, 35.760498%)" offset="0.519531"/><stop stop-opacity="1" stop-color="rgb(75.401306%, 66.801453%, 36.201477%)" offset="0.523437"/><stop stop-opacity="1" stop-color="rgb(75.791931%, 67.224121%, 36.749268%)" offset="0.527344"/><stop stop-opacity="1" stop-color="rgb(76.184082%, 67.64679%, 37.298584%)" offset="0.53125"/><stop stop-opacity="1" stop-color="rgb(76.765442%, 68.354797%, 37.513733%)" offset="0.535156"/><stop stop-opacity="1" stop-color="rgb(77.348328%, 69.064331%, 37.730408%)" offset="0.539062"/><stop stop-opacity="1" stop-color="rgb(77.697754%, 69.654846%, 38.288879%)" offset="0.542969"/><stop stop-opacity="1" stop-color="rgb(78.04718%, 70.246887%, 38.847351%)" offset="0.546875"/><stop stop-opacity="1" stop-color="rgb(78.437805%, 70.837402%, 39.237976%)" offset="0.550781"/><stop stop-opacity="1" stop-color="rgb(78.82843%, 71.427917%, 39.628601%)" offset="0.554687"/><stop stop-opacity="1" stop-color="rgb(79.220581%, 71.969604%, 40.020752%)" offset="0.558594"/><stop stop-opacity="1" stop-color="rgb(79.612732%, 72.512817%, 40.412903%)" offset="0.5625"/><stop stop-opacity="1" stop-color="rgb(80.052185%, 72.998047%, 40.898132%)" offset="0.566406"/><stop stop-opacity="1" stop-color="rgb(80.491638%, 73.483276%, 41.383362%)" offset="0.570312"/><stop stop-opacity="1" stop-color="rgb(81.082153%, 74.064636%, 41.918945%)" offset="0.574219"/><stop stop-opacity="1" stop-color="rgb(81.672668%, 74.647522%, 42.454529%)" offset="0.578125"/><stop stop-opacity="1" stop-color="rgb(82.055664%, 75.228882%, 42.803955%)" offset="0.582031"/><stop stop-opacity="1" stop-color="rgb(82.440186%, 75.810242%, 43.154907%)" offset="0.585937"/><stop stop-opacity="1" stop-color="rgb(82.788086%, 76.373291%, 43.545532%)" offset="0.589844"/><stop stop-opacity="1" stop-color="rgb(83.135986%, 76.93634%, 43.936157%)" offset="0.59375"/><stop stop-opacity="1" stop-color="rgb(83.54187%, 77.479553%, 44.529724%)" offset="0.597656"/><stop stop-opacity="1" stop-color="rgb(83.94928%, 78.024292%, 45.124817%)" offset="0.601562"/><stop stop-opacity="1" stop-color="rgb(84.623718%, 78.710938%, 45.611572%)" offset="0.605469"/><stop stop-opacity="1" stop-color="rgb(85.299683%, 79.399109%, 46.099854%)" offset="0.609375"/><stop stop-opacity="1" stop-color="rgb(86.039734%, 80.180359%, 46.640015%)" offset="0.613281"/><stop stop-opacity="1" stop-color="rgb(86.781311%, 80.963135%, 47.181702%)" offset="0.617187"/><stop stop-opacity="1" stop-color="rgb(87.164307%, 81.512451%, 47.721863%)" offset="0.621094"/><stop stop-opacity="1" stop-color="rgb(87.547302%, 82.063293%, 48.262024%)" offset="0.625"/><stop stop-opacity="1" stop-color="rgb(87.895203%, 82.603455%, 48.652649%)" offset="0.628906"/><stop stop-opacity="1" stop-color="rgb(88.244629%, 83.143616%, 49.0448%)" offset="0.632812"/><stop stop-opacity="1" stop-color="rgb(88.635254%, 83.734131%, 49.635315%)" offset="0.636719"/><stop stop-opacity="1" stop-color="rgb(89.025879%, 84.326172%, 50.22583%)" offset="0.640625"/><stop stop-opacity="1" stop-color="rgb(89.466858%, 84.967041%, 50.666809%)" offset="0.644531"/><stop stop-opacity="1" stop-color="rgb(89.907837%, 85.60791%, 51.107788%)" offset="0.648437"/><stop stop-opacity="1" stop-color="rgb(90.342712%, 86.198425%, 51.687622%)" offset="0.652344"/><stop stop-opacity="1" stop-color="rgb(90.779114%, 86.78894%, 52.267456%)" offset="0.65625"/><stop stop-opacity="1" stop-color="rgb(91.323853%, 87.329102%, 52.455139%)" offset="0.660156"/><stop stop-opacity="1" stop-color="rgb(91.870117%, 87.870789%, 52.642822%)" offset="0.664062"/><stop stop-opacity="1" stop-color="rgb(92.210388%, 88.287354%, 53.196716%)" offset="0.667969"/><stop stop-opacity="1" stop-color="rgb(92.552185%, 88.705444%, 53.752136%)" offset="0.671875"/><stop stop-opacity="1" stop-color="rgb(92.926025%, 89.27002%, 54.142761%)" offset="0.675781"/><stop stop-opacity="1" stop-color="rgb(93.299866%, 89.834595%, 54.533386%)" offset="0.679687"/><stop stop-opacity="1" stop-color="rgb(93.476868%, 90.194702%, 54.693604%)" offset="0.683594"/><stop stop-opacity="1" stop-color="rgb(93.655396%, 90.55481%, 54.855347%)" offset="0.6875"/><stop stop-opacity="1" stop-color="rgb(93.040466%, 89.678955%, 54.130554%)" offset="0.691406"/><stop stop-opacity="1" stop-color="rgb(92.425537%, 88.803101%, 53.405762%)" offset="0.695312"/><stop stop-opacity="1" stop-color="rgb(91.871643%, 88.070679%, 52.522278%)" offset="0.699219"/><stop stop-opacity="1" stop-color="rgb(91.319275%, 87.339783%, 51.64032%)" offset="0.703125"/><stop stop-opacity="1" stop-color="rgb(90.72876%, 86.558533%, 51.026917%)" offset="0.707031"/><stop stop-opacity="1" stop-color="rgb(90.138245%, 85.777283%, 50.415039%)" offset="0.710937"/><stop stop-opacity="1" stop-color="rgb(89.546204%, 84.994507%, 49.464417%)" offset="0.714844"/><stop stop-opacity="1" stop-color="rgb(88.955688%, 84.213257%, 48.513794%)" offset="0.71875"/><stop stop-opacity="1" stop-color="rgb(88.365173%, 83.427429%, 47.973633%)" offset="0.722656"/><stop stop-opacity="1" stop-color="rgb(87.774658%, 82.641602%, 47.433472%)" offset="0.726562"/><stop stop-opacity="1" stop-color="rgb(87.130737%, 81.96106%, 46.559143%)" offset="0.730469"/><stop stop-opacity="1" stop-color="rgb(86.486816%, 81.280518%, 45.68634%)" offset="0.734375"/><stop stop-opacity="1" stop-color="rgb(85.705566%, 80.151367%, 44.7052%)" offset="0.738281"/><stop stop-opacity="1" stop-color="rgb(84.924316%, 79.023743%, 43.72406%)" offset="0.742188"/><stop stop-opacity="1" stop-color="rgb(84.341431%, 78.250122%, 43.15033%)" offset="0.746094"/><stop stop-opacity="1" stop-color="rgb(83.760071%, 77.478027%, 42.578125%)" offset="0.75"/><stop stop-opacity="1" stop-color="rgb(83.184814%, 76.737976%, 41.838074%)" offset="0.753906"/><stop stop-opacity="1" stop-color="rgb(82.609558%, 75.997925%, 41.098022%)" offset="0.757812"/><stop stop-opacity="1" stop-color="rgb(81.887817%, 75.231934%, 40.315247%)" offset="0.761719"/><stop stop-opacity="1" stop-color="rgb(81.166077%, 74.465942%, 39.533997%)" offset="0.765625"/><stop stop-opacity="1" stop-color="rgb(80.66864%, 73.768616%, 38.708496%)" offset="0.769531"/><stop stop-opacity="1" stop-color="rgb(80.171204%, 73.071289%, 37.884521%)" offset="0.773438"/><stop stop-opacity="1" stop-color="rgb(79.437256%, 72.387695%, 37.342834%)" offset="0.777344"/><stop stop-opacity="1" stop-color="rgb(78.703308%, 71.704102%, 36.802673%)" offset="0.78125"/><stop stop-opacity="1" stop-color="rgb(78.283691%, 71.073914%, 36.172485%)" offset="0.785156"/><stop stop-opacity="1" stop-color="rgb(77.864075%, 70.443726%, 35.543823%)" offset="0.789063"/><stop stop-opacity="1" stop-color="rgb(77.151489%, 69.662476%, 34.962463%)" offset="0.792969"/><stop stop-opacity="1" stop-color="rgb(76.44043%, 68.881226%, 34.381104%)" offset="0.796875"/><stop stop-opacity="1" stop-color="rgb(76.028442%, 68.148804%, 33.61969%)" offset="0.800781"/><stop stop-opacity="1" stop-color="rgb(75.617981%, 67.417908%, 32.858276%)" offset="0.804688"/><stop stop-opacity="1" stop-color="rgb(75.042725%, 66.828918%, 32.498169%)" offset="0.808594"/><stop stop-opacity="1" stop-color="rgb(74.468994%, 66.239929%, 32.139587%)" offset="0.8125"/><stop stop-opacity="1" stop-color="rgb(73.979187%, 65.365601%, 31.465149%)" offset="0.816406"/><stop stop-opacity="1" stop-color="rgb(73.490906%, 64.491272%, 30.79071%)" offset="0.820313"/><stop stop-opacity="1" stop-color="rgb(72.601318%, 63.720703%, 30.00946%)" offset="0.824219"/><stop stop-opacity="1" stop-color="rgb(71.713257%, 62.950134%, 29.22821%)" offset="0.828125"/><stop stop-opacity="1" stop-color="rgb(71.122742%, 62.207031%, 28.488159%)" offset="0.832031"/><stop stop-opacity="1" stop-color="rgb(70.532227%, 61.465454%, 27.749634%)" offset="0.835938"/><stop stop-opacity="1" stop-color="rgb(70.117188%, 60.682678%, 27.200317%)" offset="0.839844"/><stop stop-opacity="1" stop-color="rgb(69.702148%, 59.901428%, 26.651001%)" offset="0.84375"/><stop stop-opacity="1" stop-color="rgb(68.930054%, 59.109497%, 26.234436%)" offset="0.847656"/><stop stop-opacity="1" stop-color="rgb(68.159485%, 58.317566%, 25.817871%)" offset="0.851563"/><stop stop-opacity="1" stop-color="rgb(67.573547%, 57.496643%, 25.146484%)" offset="0.855469"/><stop stop-opacity="1" stop-color="rgb(66.98761%, 56.67572%, 24.475098%)" offset="0.859375"/><stop stop-opacity="1" stop-color="rgb(66.395569%, 55.892944%, 23.893738%)" offset="0.863281"/><stop stop-opacity="1" stop-color="rgb(65.805054%, 55.111694%, 23.312378%)" offset="0.867188"/><stop stop-opacity="1" stop-color="rgb(65.214539%, 54.330444%, 22.779846%)" offset="0.871094"/><stop stop-opacity="1" stop-color="rgb(64.624023%, 53.549194%, 22.24884%)" offset="0.875"/><stop stop-opacity="1" stop-color="rgb(64.204407%, 52.973938%, 21.66748%)" offset="0.878906"/><stop stop-opacity="1" stop-color="rgb(63.786316%, 52.400208%, 21.086121%)" offset="0.882813"/><stop stop-opacity="1" stop-color="rgb(63.208008%, 51.660156%, 20.323181%)" offset="0.886719"/><stop stop-opacity="1" stop-color="rgb(62.631226%, 50.921631%, 19.560242%)" offset="0.890625"/><stop stop-opacity="1" stop-color="rgb(61.915588%, 50.160217%, 18.978882%)" offset="0.894531"/><stop stop-opacity="1" stop-color="rgb(61.199951%, 49.398804%, 18.399048%)" offset="0.898438"/><stop stop-opacity="1" stop-color="rgb(61.199951%, 49.398804%, 18.399048%)" offset="0.90625"/><stop stop-opacity="1" stop-color="rgb(61.199951%, 49.398804%, 18.399048%)" offset="0.9375"/><stop stop-opacity="1" stop-color="rgb(61.199951%, 49.398804%, 18.399048%)" offset="1"/></linearGradient><clipPath id="ddc0fafcab"><path d="M 352.382812 254 L 480.8125 254 L 480.8125 396.613281 L 352.382812 396.613281 Z M 352.382812 254 " clip-rule="nonzero"/></clipPath><clipPath id="42efc95ede"><path d="M 422.890625 331.097656 L 427.15625 331.300781 C 445.632812 332.113281 447.457031 333.941406 447.457031 361.964844 L 447.457031 369.476562 C 447.457031 379.023438 447.054688 382.070312 441.570312 385.925781 C 434.464844 390.800781 425.734375 393.84375 416.191406 393.84375 C 383.097656 393.84375 371.726562 358.714844 371.726562 325.410156 C 371.726562 291.90625 382.894531 256.777344 414.972656 256.777344 C 435.683594 256.777344 449.488281 270.785156 454.363281 286.015625 L 456.59375 292.921875 L 458.625 292.921875 L 458.625 254.335938 L 456.800781 254.335938 C 451.519531 261.242188 448.679688 263.476562 445.226562 263.476562 C 442.992188 263.476562 441.164062 262.257812 438.324219 260.632812 C 431.625 256.777344 423.703125 254.335938 414.972656 254.335938 C 373.960938 254.335938 352.640625 289.265625 352.640625 325.613281 C 352.640625 361.558594 373.554688 396.488281 415.785156 396.488281 C 425.9375 396.488281 434.261719 393.644531 441.570312 389.582031 C 444.617188 387.957031 446.644531 387.347656 448.679688 387.347656 C 452.535156 387.347656 456.800781 389.988281 462.484375 396.488281 L 464.3125 396.488281 L 464.3125 361.964844 C 464.3125 333.941406 466.140625 331.707031 476.289062 331.300781 L 480.554688 331.097656 L 480.554688 328.660156 L 422.890625 328.660156 Z M 422.890625 331.097656 " clip-rule="nonzero"/></clipPath><clipPath id="71e8377cc4"><path d="M 422.890625 331.097656 L 427.15625 331.300781 C 445.632812 332.113281 447.457031 333.941406 447.457031 361.964844 L 447.457031 369.476562 C 447.457031 379.023438 447.054688 382.070312 441.570312 385.925781 C 434.464844 390.800781 425.734375 393.84375 416.191406 393.84375 C 383.097656 393.84375 371.726562 358.714844 371.726562 325.410156 C 371.726562 291.90625 382.894531 256.777344 414.972656 256.777344 C 435.683594 256.777344 449.488281 270.785156 454.363281 286.015625 L 456.59375 292.921875 L 458.625 292.921875 L 458.625 254.335938 L 456.800781 254.335938 C 451.519531 261.242188 448.679688 263.476562 445.226562 263.476562 C 442.992188 263.476562 441.164062 262.257812 438.324219 260.632812 C 431.625 256.777344 423.703125 254.335938 414.972656 254.335938 C 373.960938 254.335938 352.640625 289.265625 352.640625 325.613281 C 352.640625 361.558594 373.554688 396.488281 415.785156 396.488281 C 425.9375 396.488281 434.261719 393.644531 441.570312 389.582031 C 444.617188 387.957031 446.644531 387.347656 448.679688 387.347656 C 452.535156 387.347656 456.800781 389.988281 462.484375 396.488281 L 464.3125 396.488281 L 464.3125 361.964844 C 464.3125 333.941406 466.140625 331.707031 476.289062 331.300781 L 480.554688 331.097656 L 480.554688 328.660156 L 422.890625 328.660156 L 422.890625 331.097656 " clip-rule="nonzero"/></clipPath><clipPath id="75301643dc"><path d="M 384.621094 451.882812 L 542.097656 360.949219 L 448.578125 198.941406 L 291.101562 289.875 Z M 384.621094 451.882812 " clip-rule="nonzero"/></clipPath><linearGradient x1="-0.051601" gradientTransform="matrix(-78.085395, -135.269912, 135.247878, -78.098121, 461.42157, 398.228747)" y1="0" x2="1.146081" gradientUnits="userSpaceOnUse" y2="0" id="ab5058612b"><stop stop-opacity="1" stop-color="rgb(94.898987%, 94.499207%, 58.799744%)" offset="0"/><stop stop-opacity="1" stop-color="rgb(94.891357%, 94.499207%, 58.799744%)" offset="0.03125"/><stop stop-opacity="1" stop-color="rgb(94.787598%, 94.499207%, 58.799744%)" offset="0.0390625"/><stop stop-opacity="1" stop-color="rgb(94.584656%, 94.47937%, 58.779907%)" offset="0.046875"/><stop stop-opacity="1" stop-color="rgb(94.088745%, 93.878174%, 58.178711%)" offset="0.0507813"/><stop stop-opacity="1" stop-color="rgb(93.699646%, 93.29834%, 57.598877%)" offset="0.0546875"/><stop stop-opacity="1" stop-color="rgb(93.508911%, 92.764282%, 57.258606%)" offset="0.0585938"/><stop stop-opacity="1" stop-color="rgb(93.318176%, 92.23175%, 56.918335%)" offset="0.0625"/><stop stop-opacity="1" stop-color="rgb(92.884827%, 91.783142%, 56.477356%)" offset="0.0664062"/><stop stop-opacity="1" stop-color="rgb(92.451477%, 91.33606%, 56.036377%)" offset="0.0703125"/><stop stop-opacity="1" stop-color="rgb(92.103577%, 90.745544%, 55.62439%)" offset="0.0742188"/><stop stop-opacity="1" stop-color="rgb(91.755676%, 90.155029%, 55.212402%)" offset="0.078125"/><stop stop-opacity="1" stop-color="rgb(91.365051%, 89.564514%, 54.64325%)" offset="0.0820313"/><stop stop-opacity="1" stop-color="rgb(90.974426%, 88.973999%, 54.074097%)" offset="0.0859375"/><stop stop-opacity="1" stop-color="rgb(90.583801%, 88.581848%, 53.683472%)" offset="0.0898438"/><stop stop-opacity="1" stop-color="rgb(90.193176%, 88.189697%, 53.292847%)" offset="0.09375"/><stop stop-opacity="1" stop-color="rgb(89.802551%, 87.651062%, 52.902222%)" offset="0.0976563"/><stop stop-opacity="1" stop-color="rgb(89.411926%, 87.112427%, 52.513123%)" offset="0.101563"/><stop stop-opacity="1" stop-color="rgb(88.970947%, 86.471558%, 52.122498%)" offset="0.105469"/><stop stop-opacity="1" stop-color="rgb(88.531494%, 85.830688%, 51.731873%)" offset="0.109375"/><stop stop-opacity="1" stop-color="rgb(88.146973%, 85.240173%, 51.141357%)" offset="0.113281"/><stop stop-opacity="1" stop-color="rgb(87.762451%, 84.649658%, 50.550842%)" offset="0.117188"/><stop stop-opacity="1" stop-color="rgb(87.615967%, 84.059143%, 50.160217%)" offset="0.121094"/><stop stop-opacity="1" stop-color="rgb(87.469482%, 83.468628%, 49.769592%)" offset="0.125"/><stop stop-opacity="1" stop-color="rgb(87.078857%, 83.073425%, 49.183655%)" offset="0.128906"/><stop stop-opacity="1" stop-color="rgb(86.688232%, 82.679749%, 48.599243%)" offset="0.132812"/><stop stop-opacity="1" stop-color="rgb(86.100769%, 82.142639%, 48.402405%)" offset="0.136719"/><stop stop-opacity="1" stop-color="rgb(85.514832%, 81.607056%, 48.207092%)" offset="0.140625"/><stop stop-opacity="1" stop-color="rgb(84.869385%, 80.766296%, 47.579956%)" offset="0.144531"/><stop stop-opacity="1" stop-color="rgb(84.225464%, 79.925537%, 46.95282%)" offset="0.148438"/><stop stop-opacity="1" stop-color="rgb(83.834839%, 79.335022%, 46.398926%)" offset="0.152344"/><stop stop-opacity="1" stop-color="rgb(83.44574%, 78.744507%, 45.845032%)" offset="0.15625"/><stop stop-opacity="1" stop-color="rgb(83.058167%, 78.340149%, 45.454407%)" offset="0.160156"/><stop stop-opacity="1" stop-color="rgb(82.672119%, 77.937317%, 45.063782%)" offset="0.164062"/><stop stop-opacity="1" stop-color="rgb(82.327271%, 77.209473%, 44.473267%)" offset="0.167969"/><stop stop-opacity="1" stop-color="rgb(81.982422%, 76.483154%, 43.882751%)" offset="0.171875"/><stop stop-opacity="1" stop-color="rgb(81.591797%, 76.092529%, 43.690491%)" offset="0.175781"/><stop stop-opacity="1" stop-color="rgb(81.202698%, 75.701904%, 43.499756%)" offset="0.179688"/><stop stop-opacity="1" stop-color="rgb(80.812073%, 75.111389%, 42.956543%)" offset="0.183594"/><stop stop-opacity="1" stop-color="rgb(80.421448%, 74.520874%, 42.414856%)" offset="0.1875"/><stop stop-opacity="1" stop-color="rgb(79.980469%, 73.880005%, 41.976929%)" offset="0.191406"/><stop stop-opacity="1" stop-color="rgb(79.53949%, 73.239136%, 41.540527%)" offset="0.195312"/><stop stop-opacity="1" stop-color="rgb(79.148865%, 72.833252%, 41.149902%)" offset="0.199219"/><stop stop-opacity="1" stop-color="rgb(78.75824%, 72.428894%, 40.759277%)" offset="0.203125"/><stop stop-opacity="1" stop-color="rgb(78.367615%, 71.902466%, 40.168762%)" offset="0.207031"/><stop stop-opacity="1" stop-color="rgb(77.978516%, 71.377563%, 39.578247%)" offset="0.210938"/><stop stop-opacity="1" stop-color="rgb(77.636719%, 70.985413%, 39.387512%)" offset="0.214844"/><stop stop-opacity="1" stop-color="rgb(77.296448%, 70.594788%, 39.196777%)" offset="0.21875"/><stop stop-opacity="1" stop-color="rgb(76.905823%, 70.004272%, 38.806152%)" offset="0.222656"/><stop stop-opacity="1" stop-color="rgb(76.515198%, 69.415283%, 38.415527%)" offset="0.226563"/><stop stop-opacity="1" stop-color="rgb(76.074219%, 68.75%, 37.982178%)" offset="0.230469"/><stop stop-opacity="1" stop-color="rgb(75.634766%, 68.086243%, 37.550354%)" offset="0.234375"/><stop stop-opacity="1" stop-color="rgb(75.244141%, 67.56897%, 37.001038%)" offset="0.238281"/><stop stop-opacity="1" stop-color="rgb(74.853516%, 67.053223%, 36.453247%)" offset="0.242188"/><stop stop-opacity="1" stop-color="rgb(74.476624%, 66.462708%, 36.076355%)" offset="0.246094"/><stop stop-opacity="1" stop-color="rgb(74.099731%, 65.872192%, 35.699463%)" offset="0.25"/><stop stop-opacity="1" stop-color="rgb(73.895264%, 65.481567%, 35.491943%)" offset="0.253906"/><stop stop-opacity="1" stop-color="rgb(73.690796%, 65.090942%, 35.284424%)" offset="0.257813"/><stop stop-opacity="1" stop-color="rgb(73.106384%, 64.506531%, 34.69696%)" offset="0.261719"/><stop stop-opacity="1" stop-color="rgb(72.521973%, 63.922119%, 34.111023%)" offset="0.265625"/><stop stop-opacity="1" stop-color="rgb(72.125244%, 63.284302%, 33.670044%)" offset="0.269531"/><stop stop-opacity="1" stop-color="rgb(71.730042%, 62.646484%, 33.229065%)" offset="0.273438"/><stop stop-opacity="1" stop-color="rgb(71.339417%, 62.271118%, 32.844543%)" offset="0.277344"/><stop stop-opacity="1" stop-color="rgb(70.948792%, 61.897278%, 32.461548%)" offset="0.28125"/><stop stop-opacity="1" stop-color="rgb(70.558167%, 61.131287%, 32.113647%)" offset="0.285156"/><stop stop-opacity="1" stop-color="rgb(70.167542%, 60.366821%, 31.767273%)" offset="0.289063"/><stop stop-opacity="1" stop-color="rgb(69.776917%, 59.976196%, 31.376648%)" offset="0.292969"/><stop stop-opacity="1" stop-color="rgb(69.386292%, 59.585571%, 30.986023%)" offset="0.296875"/><stop stop-opacity="1" stop-color="rgb(68.995667%, 58.998108%, 30.595398%)" offset="0.300781"/><stop stop-opacity="1" stop-color="rgb(68.605042%, 58.410645%, 30.204773%)" offset="0.304688"/><stop stop-opacity="1" stop-color="rgb(68.214417%, 58.016968%, 29.814148%)" offset="0.308594"/><stop stop-opacity="1" stop-color="rgb(67.823792%, 57.624817%, 29.423523%)" offset="0.3125"/><stop stop-opacity="1" stop-color="rgb(67.433167%, 57.00531%, 29.182434%)" offset="0.316406"/><stop stop-opacity="1" stop-color="rgb(67.042542%, 56.387329%, 28.942871%)" offset="0.320312"/><stop stop-opacity="1" stop-color="rgb(66.670227%, 55.82428%, 28.552246%)" offset="0.324219"/><stop stop-opacity="1" stop-color="rgb(66.299438%, 55.262756%, 28.161621%)" offset="0.328125"/><stop stop-opacity="1" stop-color="rgb(66.090393%, 54.672241%, 27.82135%)" offset="0.332031"/><stop stop-opacity="1" stop-color="rgb(65.881348%, 54.081726%, 27.481079%)" offset="0.335938"/><stop stop-opacity="1" stop-color="rgb(65.290833%, 53.691101%, 27.090454%)" offset="0.339844"/><stop stop-opacity="1" stop-color="rgb(64.700317%, 53.300476%, 26.699829%)" offset="0.34375"/><stop stop-opacity="1" stop-color="rgb(64.309692%, 52.566528%, 26.309204%)" offset="0.347656"/><stop stop-opacity="1" stop-color="rgb(63.919067%, 51.834106%, 25.918579%)" offset="0.351563"/><stop stop-opacity="1" stop-color="rgb(63.539124%, 51.446533%, 25.538635%)" offset="0.355469"/><stop stop-opacity="1" stop-color="rgb(63.160706%, 51.060486%, 25.160217%)" offset="0.359375"/><stop stop-opacity="1" stop-color="rgb(63.551331%, 51.451111%, 25.52948%)" offset="0.363281"/><stop stop-opacity="1" stop-color="rgb(63.941956%, 51.841736%, 25.898743%)" offset="0.367188"/><stop stop-opacity="1" stop-color="rgb(64.332581%, 52.381897%, 26.11084%)" offset="0.371094"/><stop stop-opacity="1" stop-color="rgb(64.723206%, 52.922058%, 26.322937%)" offset="0.375"/><stop stop-opacity="1" stop-color="rgb(65.112305%, 53.314209%, 26.713562%)" offset="0.378906"/><stop stop-opacity="1" stop-color="rgb(65.50293%, 53.707886%, 27.104187%)" offset="0.382813"/><stop stop-opacity="1" stop-color="rgb(65.893555%, 54.295349%, 27.445984%)" offset="0.386719"/><stop stop-opacity="1" stop-color="rgb(66.28418%, 54.884338%, 27.787781%)" offset="0.390625"/><stop stop-opacity="1" stop-color="rgb(66.891479%, 55.525208%, 28.225708%)" offset="0.394531"/><stop stop-opacity="1" stop-color="rgb(67.498779%, 56.166077%, 28.665161%)" offset="0.398438"/><stop stop-opacity="1" stop-color="rgb(67.672729%, 56.573486%, 28.855896%)" offset="0.402344"/><stop stop-opacity="1" stop-color="rgb(67.84668%, 56.982422%, 29.046631%)" offset="0.40625"/><stop stop-opacity="1" stop-color="rgb(68.251038%, 57.519531%, 29.621887%)" offset="0.410156"/><stop stop-opacity="1" stop-color="rgb(68.656921%, 58.056641%, 30.198669%)" offset="0.414062"/><stop stop-opacity="1" stop-color="rgb(69.232178%, 58.631897%, 30.403137%)" offset="0.417969"/><stop stop-opacity="1" stop-color="rgb(69.80896%, 59.208679%, 30.609131%)" offset="0.421875"/><stop stop-opacity="1" stop-color="rgb(70.199585%, 59.599304%, 30.999756%)" offset="0.425781"/><stop stop-opacity="1" stop-color="rgb(70.59021%, 59.989929%, 31.390381%)" offset="0.429688"/><stop stop-opacity="1" stop-color="rgb(70.980835%, 60.580444%, 31.781006%)" offset="0.433594"/><stop stop-opacity="1" stop-color="rgb(71.37146%, 61.170959%, 32.171631%)" offset="0.4375"/><stop stop-opacity="1" stop-color="rgb(71.630859%, 61.830139%, 32.588196%)" offset="0.441406"/><stop stop-opacity="1" stop-color="rgb(71.891785%, 62.490845%, 33.004761%)" offset="0.445313"/><stop stop-opacity="1" stop-color="rgb(72.412109%, 63.027954%, 33.56781%)" offset="0.449219"/><stop stop-opacity="1" stop-color="rgb(72.932434%, 63.566589%, 34.132385%)" offset="0.453125"/><stop stop-opacity="1" stop-color="rgb(73.323059%, 64.14032%, 34.52301%)" offset="0.457031"/><stop stop-opacity="1" stop-color="rgb(73.713684%, 64.71405%, 34.913635%)" offset="0.460938"/><stop stop-opacity="1" stop-color="rgb(74.104309%, 65.104675%, 35.30426%)" offset="0.464844"/><stop stop-opacity="1" stop-color="rgb(74.494934%, 65.4953%, 35.694885%)" offset="0.46875"/><stop stop-opacity="1" stop-color="rgb(74.885559%, 66.085815%, 35.896301%)" offset="0.472656"/><stop stop-opacity="1" stop-color="rgb(75.276184%, 66.676331%, 36.099243%)" offset="0.476563"/><stop stop-opacity="1" stop-color="rgb(75.715637%, 67.138672%, 36.528015%)" offset="0.480469"/><stop stop-opacity="1" stop-color="rgb(76.156616%, 67.601013%, 36.956787%)" offset="0.484375"/><stop stop-opacity="1" stop-color="rgb(76.547241%, 68.319702%, 37.297058%)" offset="0.488281"/><stop stop-opacity="1" stop-color="rgb(76.937866%, 69.038391%, 37.638855%)" offset="0.492188"/><stop stop-opacity="1" stop-color="rgb(77.468872%, 69.438171%, 38.218689%)" offset="0.496094"/><stop stop-opacity="1" stop-color="rgb(77.999878%, 69.839478%, 38.798523%)" offset="0.5"/><stop stop-opacity="1" stop-color="rgb(78.199768%, 70.419312%, 38.998413%)" offset="0.503906"/><stop stop-opacity="1" stop-color="rgb(78.399658%, 71.000671%, 39.199829%)" offset="0.507812"/><stop stop-opacity="1" stop-color="rgb(78.790283%, 71.582031%, 39.590454%)" offset="0.511719"/><stop stop-opacity="1" stop-color="rgb(79.180908%, 72.163391%, 39.981079%)" offset="0.515625"/><stop stop-opacity="1" stop-color="rgb(79.652405%, 72.563171%, 40.452576%)" offset="0.519531"/><stop stop-opacity="1" stop-color="rgb(80.125427%, 72.962952%, 40.925598%)" offset="0.523438"/><stop stop-opacity="1" stop-color="rgb(80.683899%, 73.553467%, 41.48407%)" offset="0.527344"/><stop stop-opacity="1" stop-color="rgb(81.243896%, 74.143982%, 42.044067%)" offset="0.53125"/><stop stop-opacity="1" stop-color="rgb(81.634521%, 74.546814%, 42.243958%)" offset="0.535156"/><stop stop-opacity="1" stop-color="rgb(82.025146%, 74.949646%, 42.443848%)" offset="0.539062"/><stop stop-opacity="1" stop-color="rgb(82.365417%, 75.727844%, 42.974854%)" offset="0.542969"/><stop stop-opacity="1" stop-color="rgb(82.705688%, 76.506042%, 43.505859%)" offset="0.546875"/><stop stop-opacity="1" stop-color="rgb(83.096313%, 76.896667%, 43.896484%)" offset="0.550781"/><stop stop-opacity="1" stop-color="rgb(83.486938%, 77.287292%, 44.287109%)" offset="0.554688"/><stop stop-opacity="1" stop-color="rgb(84.060669%, 77.810669%, 44.677734%)" offset="0.558594"/><stop stop-opacity="1" stop-color="rgb(84.635925%, 78.335571%, 45.068359%)" offset="0.5625"/><stop stop-opacity="1" stop-color="rgb(84.916687%, 79.016113%, 45.707703%)" offset="0.566406"/><stop stop-opacity="1" stop-color="rgb(85.197449%, 79.698181%, 46.348572%)" offset="0.570312"/><stop stop-opacity="1" stop-color="rgb(85.96344%, 80.464172%, 46.934509%)" offset="0.574219"/><stop stop-opacity="1" stop-color="rgb(86.729431%, 81.230164%, 47.521973%)" offset="0.578125"/><stop stop-opacity="1" stop-color="rgb(87.11853%, 81.819153%, 47.865295%)" offset="0.582031"/><stop stop-opacity="1" stop-color="rgb(87.507629%, 82.408142%, 48.210144%)" offset="0.585938"/><stop stop-opacity="1" stop-color="rgb(87.849426%, 82.749939%, 48.600769%)" offset="0.589844"/><stop stop-opacity="1" stop-color="rgb(88.191223%, 83.091736%, 48.991394%)" offset="0.59375"/><stop stop-opacity="1" stop-color="rgb(88.581848%, 83.668518%, 49.382019%)" offset="0.597656"/><stop stop-opacity="1" stop-color="rgb(88.972473%, 84.246826%, 49.772644%)" offset="0.601562"/><stop stop-opacity="1" stop-color="rgb(89.413452%, 84.727478%, 50.413513%)" offset="0.605469"/><stop stop-opacity="1" stop-color="rgb(89.854431%, 85.20813%, 51.054382%)" offset="0.609375"/><stop stop-opacity="1" stop-color="rgb(90.24353%, 85.78949%, 51.445007%)" offset="0.613281"/><stop stop-opacity="1" stop-color="rgb(90.634155%, 86.37085%, 51.835632%)" offset="0.617188"/><stop stop-opacity="1" stop-color="rgb(91.02478%, 86.941528%, 52.175903%)" offset="0.621094"/><stop stop-opacity="1" stop-color="rgb(91.415405%, 87.512207%, 52.516174%)" offset="0.625"/><stop stop-opacity="1" stop-color="rgb(91.80603%, 88.052368%, 53.105164%)" offset="0.628906"/><stop stop-opacity="1" stop-color="rgb(92.196655%, 88.594055%, 53.694153%)" offset="0.632812"/><stop stop-opacity="1" stop-color="rgb(92.536926%, 89.175415%, 54.086304%)" offset="0.636719"/><stop stop-opacity="1" stop-color="rgb(92.878723%, 89.756775%, 54.478455%)" offset="0.640625"/><stop stop-opacity="1" stop-color="rgb(92.887878%, 89.778137%, 54.386902%)" offset="0.648438"/><stop stop-opacity="1" stop-color="rgb(92.878723%, 89.758301%, 54.156494%)" offset="0.65625"/><stop stop-opacity="1" stop-color="rgb(92.506409%, 88.938904%, 53.439331%)" offset="0.660156"/><stop stop-opacity="1" stop-color="rgb(92.155457%, 88.160706%, 52.861023%)" offset="0.664062"/><stop stop-opacity="1" stop-color="rgb(91.575623%, 87.626648%, 52.325439%)" offset="0.667969"/><stop stop-opacity="1" stop-color="rgb(90.995789%, 87.09259%, 51.789856%)" offset="0.671875"/><stop stop-opacity="1" stop-color="rgb(90.412903%, 86.31134%, 50.810242%)" offset="0.675781"/><stop stop-opacity="1" stop-color="rgb(89.831543%, 85.531616%, 49.830627%)" offset="0.679688"/><stop stop-opacity="1" stop-color="rgb(89.250183%, 84.750366%, 49.232483%)" offset="0.683594"/><stop stop-opacity="1" stop-color="rgb(88.668823%, 83.969116%, 48.634338%)" offset="0.6875"/><stop stop-opacity="1" stop-color="rgb(88.192749%, 83.293152%, 47.821045%)" offset="0.691406"/><stop stop-opacity="1" stop-color="rgb(87.718201%, 82.618713%, 47.007751%)" offset="0.695312"/><stop stop-opacity="1" stop-color="rgb(87.181091%, 81.881714%, 46.226501%)" offset="0.699219"/><stop stop-opacity="1" stop-color="rgb(86.645508%, 81.144714%, 45.445251%)" offset="0.703125"/><stop stop-opacity="1" stop-color="rgb(85.864258%, 80.163574%, 44.667053%)" offset="0.707031"/><stop stop-opacity="1" stop-color="rgb(85.083008%, 79.182434%, 43.890381%)" offset="0.710938"/><stop stop-opacity="1" stop-color="rgb(84.495544%, 78.401184%, 43.304443%)" offset="0.714844"/><stop stop-opacity="1" stop-color="rgb(83.909607%, 77.62146%, 42.720032%)" offset="0.71875"/><stop stop-opacity="1" stop-color="rgb(83.334351%, 77.090454%, 41.989136%)" offset="0.722656"/><stop stop-opacity="1" stop-color="rgb(82.759094%, 76.559448%, 41.25824%)" offset="0.726562"/><stop stop-opacity="1" stop-color="rgb(82.15332%, 75.67749%, 40.402222%)" offset="0.730469"/><stop stop-opacity="1" stop-color="rgb(81.547546%, 74.797058%, 39.547729%)" offset="0.734375"/><stop stop-opacity="1" stop-color="rgb(80.957031%, 74.215698%, 38.957214%)" offset="0.738281"/><stop stop-opacity="1" stop-color="rgb(80.366516%, 73.634338%, 38.366699%)" offset="0.742188"/><stop stop-opacity="1" stop-color="rgb(79.776001%, 73.054504%, 37.971497%)" offset="0.746094"/><stop stop-opacity="1" stop-color="rgb(79.185486%, 72.476196%, 37.576294%)" offset="0.75"/><stop stop-opacity="1" stop-color="rgb(78.598022%, 71.742249%, 36.842346%)" offset="0.753906"/><stop stop-opacity="1" stop-color="rgb(78.010559%, 71.009827%, 36.109924%)" offset="0.757812"/><stop stop-opacity="1" stop-color="rgb(77.664185%, 70.428467%, 35.716248%)" offset="0.761719"/><stop stop-opacity="1" stop-color="rgb(77.31781%, 69.848633%, 35.324097%)" offset="0.765625"/><stop stop-opacity="1" stop-color="rgb(76.679993%, 68.974304%, 34.483337%)" offset="0.769531"/><stop stop-opacity="1" stop-color="rgb(76.042175%, 68.099976%, 33.642578%)" offset="0.773438"/><stop stop-opacity="1" stop-color="rgb(75.63324%, 67.56134%, 33.056641%)" offset="0.777344"/><stop stop-opacity="1" stop-color="rgb(75.224304%, 67.024231%, 32.470703%)" offset="0.78125"/><stop stop-opacity="1" stop-color="rgb(74.6521%, 66.252136%, 31.925964%)" offset="0.785156"/><stop stop-opacity="1" stop-color="rgb(74.079895%, 65.480042%, 31.381226%)" offset="0.789062"/><stop stop-opacity="1" stop-color="rgb(73.48938%, 64.889526%, 30.990601%)" offset="0.792969"/><stop stop-opacity="1" stop-color="rgb(72.900391%, 64.300537%, 30.599976%)" offset="0.796875"/><stop stop-opacity="1" stop-color="rgb(72.366333%, 63.519287%, 29.818726%)" offset="0.800781"/><stop stop-opacity="1" stop-color="rgb(71.832275%, 62.738037%, 29.037476%)" offset="0.804688"/><stop stop-opacity="1" stop-color="rgb(71.253967%, 62.007141%, 28.456116%)" offset="0.808594"/><stop stop-opacity="1" stop-color="rgb(70.675659%, 61.276245%, 27.876282%)" offset="0.8125"/><stop stop-opacity="1" stop-color="rgb(70.014954%, 60.415649%, 27.26593%)" offset="0.816406"/><stop stop-opacity="1" stop-color="rgb(69.355774%, 59.55658%, 26.657104%)" offset="0.820312"/><stop stop-opacity="1" stop-color="rgb(68.765259%, 58.953857%, 26.254272%)" offset="0.824219"/><stop stop-opacity="1" stop-color="rgb(68.174744%, 58.351135%, 25.85144%)" offset="0.828125"/><stop stop-opacity="1" stop-color="rgb(67.634583%, 57.817078%, 25.273132%)" offset="0.832031"/><stop stop-opacity="1" stop-color="rgb(67.094421%, 57.284546%, 24.694824%)" offset="0.835938"/><stop stop-opacity="1" stop-color="rgb(66.703796%, 56.304932%, 24.304199%)" offset="0.839844"/><stop stop-opacity="1" stop-color="rgb(66.313171%, 55.326843%, 23.913574%)" offset="0.84375"/><stop stop-opacity="1" stop-color="rgb(65.722656%, 54.745483%, 23.184204%)" offset="0.847656"/><stop stop-opacity="1" stop-color="rgb(65.132141%, 54.165649%, 22.45636%)" offset="0.851562"/><stop stop-opacity="1" stop-color="rgb(64.666748%, 53.489685%, 21.97876%)" offset="0.855469"/><stop stop-opacity="1" stop-color="rgb(64.202881%, 52.815247%, 21.502686%)" offset="0.859375"/><stop stop-opacity="1" stop-color="rgb(63.624573%, 52.078247%, 20.736694%)" offset="0.863281"/><stop stop-opacity="1" stop-color="rgb(63.047791%, 51.341248%, 19.970703%)" offset="0.867188"/><stop stop-opacity="1" stop-color="rgb(62.322998%, 50.564575%, 19.384766%)" offset="0.871094"/><stop stop-opacity="1" stop-color="rgb(61.599731%, 49.789429%, 18.798828%)" offset="0.875"/><stop stop-opacity="1" stop-color="rgb(61.402893%, 49.594116%, 18.603516%)" offset="0.878906"/><stop stop-opacity="1" stop-color="rgb(61.207581%, 49.398804%, 18.408203%)" offset="0.882812"/><stop stop-opacity="1" stop-color="rgb(61.203003%, 49.398804%, 18.403625%)" offset="0.890625"/><stop stop-opacity="1" stop-color="rgb(61.199951%, 49.398804%, 18.399048%)" offset="0.90625"/><stop stop-opacity="1" stop-color="rgb(61.199951%, 49.398804%, 18.399048%)" offset="0.9375"/><stop stop-opacity="1" stop-color="rgb(61.199951%, 49.398804%, 18.399048%)" offset="1"/></linearGradient></defs><rect x="-81" width="972" fill="#ffffff" y="-80.999999" height="971.999992" fill-opacity="1"/><rect x="-81" width="972" fill="#ffffff" y="-80.999999" height="971.999992" fill-opacity="1"/><rect x="-81" width="972" fill="#1b1806" y="-80.999999" height="971.999992" fill-opacity="1"/><g clip-path="url(#7ac3db23c1)"><g clip-path="url(#c9e9e457d5)"><g clip-path="url(#57fe1e17b6)"><g clip-path="url(#ccc0a04451)"><path fill="url(#710093dc5d)" d="M 299.101562 594.941406 L 666.503906 382.789062 L 460.910156 26.636719 L 93.511719 238.789062 Z M 299.101562 594.941406 " fill-rule="nonzero"/></g></g></g></g><g clip-path="url(#ddc0fafcab)"><g clip-path="url(#42efc95ede)"><g clip-path="url(#71e8377cc4)"><g clip-path="url(#75301643dc)"><path fill="url(#ab5058612b)" d="M 384.621094 451.882812 L 542.097656 360.949219 L 448.578125 198.9375 L 291.097656 289.875 Z M 384.621094 451.882812 " fill-rule="nonzero"/></g></g></g></g><g fill="#c4ad5d" fill-opacity="1"><g transform="translate(164.162676, 549.75136)"><g><path d="M 95.453125 -75.65625 C 95.453125 -69.882812 93.578125 -63.84375 89.828125 -57.53125 C 86.078125 -51.226562 80.898438 -45.738281 74.296875 -41.0625 C 67.703125 -36.382812 60.882812 -33.445312 53.84375 -32.25 C 49.800781 -24.09375 46.882812 -18.382812 45.09375 -15.125 L 43 -11.75 C 56.132812 -8.5 67.019531 -3.550781 75.65625 3.09375 C 80.03125 6.46875 82.984375 10.613281 84.515625 15.53125 C 85.304688 18.050781 85.703125 20.207031 85.703125 22 C 85.703125 23.789062 85.351562 25.300781 84.65625 26.53125 C 83.957031 27.757812 83.144531 28.601562 82.21875 29.0625 C 81.289062 29.53125 80.625 29.765625 80.21875 29.765625 C 79.820312 29.765625 79.625 29.597656 79.625 29.265625 C 79.625 28.929688 80.003906 27.953125 80.765625 26.328125 C 81.535156 24.703125 81.921875 22.796875 81.921875 20.609375 C 81.921875 18.421875 81.457031 16 80.53125 13.34375 C 79.601562 10.6875 77.875 8.242188 75.34375 6.015625 C 72.820312 3.796875 69.320312 1.707031 64.84375 -0.25 C 60.363281 -2.207031 56.484375 -3.597656 53.203125 -4.421875 C 49.921875 -5.253906 45.523438 -6.203125 40.015625 -7.265625 C 34.367188 0.628906 28.492188 6.035156 22.390625 8.953125 C 18.742188 10.742188 15.507812 11.640625 12.6875 11.640625 C 9.863281 11.640625 7.359375 11.078125 5.171875 9.953125 C 1.390625 8.097656 -0.5 5.273438 -0.5 1.484375 C -0.5 -2.296875 1.988281 -5.613281 6.96875 -8.46875 C 12.601562 -11.78125 20.234375 -13.4375 29.859375 -13.4375 C 33.304688 -13.4375 36.425781 -13.171875 39.21875 -12.640625 C 42.195312 -17.285156 45.679688 -23.691406 49.671875 -31.859375 C 49.273438 -31.859375 48.910156 -31.859375 48.578125 -31.859375 C 44.390625 -31.859375 40.503906 -32.550781 36.921875 -33.9375 C 33.335938 -35.332031 30.484375 -37.226562 28.359375 -39.625 C 25.578125 -42.738281 24.1875 -46.253906 24.1875 -50.171875 C 24.1875 -52.222656 24.695312 -54.441406 25.71875 -56.828125 C 26.75 -59.222656 29.039062 -61.648438 32.59375 -64.109375 C 36.144531 -66.566406 40.640625 -68.425781 46.078125 -69.6875 C 46.941406 -69.882812 47.671875 -69.984375 48.265625 -69.984375 C 48.867188 -69.984375 49.234375 -69.816406 49.359375 -69.484375 C 49.492188 -69.148438 49.226562 -68.847656 48.5625 -68.578125 C 47.90625 -68.316406 47.144531 -68.117188 46.28125 -67.984375 C 43.425781 -67.660156 40.769531 -66.703125 38.3125 -65.109375 C 34.070312 -62.378906 31.117188 -58.195312 29.453125 -52.5625 C 29.054688 -51.226562 28.859375 -49.945312 28.859375 -48.71875 C 28.859375 -47.5 29.085938 -46.023438 29.546875 -44.296875 C 30.015625 -42.566406 31.007812 -40.789062 32.53125 -38.96875 C 34.0625 -37.144531 36.140625 -35.867188 38.765625 -35.140625 C 41.390625 -34.410156 43.679688 -34.046875 45.640625 -34.046875 C 47.597656 -34.046875 49.40625 -34.144531 51.0625 -34.34375 L 59.515625 -55.640625 C 65.359375 -70.640625 72.328125 -79.867188 80.421875 -83.328125 C 82.546875 -84.179688 84.617188 -84.609375 86.640625 -84.609375 C 88.671875 -84.609375 90.597656 -83.960938 92.421875 -82.671875 C 94.242188 -81.378906 95.222656 -79.800781 95.359375 -77.9375 C 95.421875 -77.144531 95.453125 -76.382812 95.453125 -75.65625 Z M 91.28125 -75.5625 C 91.28125 -78.082031 90.117188 -79.34375 87.796875 -79.34375 C 84.410156 -79.34375 80.296875 -76.390625 75.453125 -70.484375 C 71.671875 -65.765625 68.035156 -60.070312 64.546875 -53.40625 C 61.066406 -46.738281 57.96875 -40.582031 55.25 -34.9375 C 64.46875 -37 72.773438 -42.0625 80.171875 -50.125 C 87.578125 -58.1875 91.28125 -66.664062 91.28125 -75.5625 Z M 36.125 -7.859375 C 32.875 -8.585938 29.523438 -8.953125 26.078125 -8.953125 C 22.628906 -8.953125 19.078125 -8.457031 15.421875 -7.46875 C 7.785156 -5.476562 3.304688 -2.65625 1.984375 1 C 1.722656 1.65625 1.59375 2.285156 1.59375 2.890625 C 1.59375 4.609375 2.535156 6.015625 4.421875 7.109375 C 6.316406 8.210938 8.390625 8.765625 10.640625 8.765625 C 13.765625 8.765625 17.148438 7.898438 20.796875 6.171875 C 26.304688 3.515625 31.414062 -1.160156 36.125 -7.859375 Z M 36.125 -7.859375 "/></g></g></g><g fill="#c4ad5d" fill-opacity="1"><g transform="translate(235.034514, 549.75136)"><g><path d="M 35.9375 -26.984375 C 34.738281 -25.785156 33.046875 -23.078125 30.859375 -18.859375 C 28.671875 -14.648438 27.359375 -11.5 26.921875 -9.40625 C 26.492188 -7.3125 26.28125 -5.617188 26.28125 -4.328125 C 26.28125 -3.035156 26.78125 -2.390625 27.78125 -2.390625 C 29.039062 -2.390625 30.597656 -3.550781 32.453125 -5.875 C 35.171875 -9.257812 37.859375 -13.671875 40.515625 -19.109375 C 40.773438 -19.710938 41.070312 -20.046875 41.40625 -20.109375 C 41.9375 -20.304688 42.203125 -20.109375 42.203125 -19.515625 C 42.203125 -19.179688 42.101562 -18.78125 41.90625 -18.3125 C 35.800781 -5.96875 30.660156 0.203125 26.484375 0.203125 C 24.554688 0.203125 22.992188 -0.726562 21.796875 -2.59375 C 21.203125 -3.582031 20.90625 -4.90625 20.90625 -6.5625 C 20.90625 -8.226562 21.238281 -10.253906 21.90625 -12.640625 C 16.59375 -4.078125 12.007812 0.203125 8.15625 0.203125 C 7.09375 0.203125 6.132812 -0.128906 5.28125 -0.796875 C 3.289062 -2.191406 2.296875 -4.582031 2.296875 -7.96875 C 2.296875 -14.46875 5.113281 -21.070312 10.75 -27.78125 C 13.9375 -31.488281 17.851562 -33.910156 22.5 -35.046875 C 23.757812 -35.367188 24.953125 -35.53125 26.078125 -35.53125 C 29.128906 -35.53125 31.71875 -34.472656 33.84375 -32.359375 C 34.507812 -31.617188 34.707031 -30.914062 34.4375 -30.25 C 34.175781 -29.59375 33.613281 -29.332031 32.75 -29.46875 C 32.019531 -31.851562 30.425781 -33.046875 27.96875 -33.046875 C 25.113281 -33.046875 21.597656 -30.789062 17.421875 -26.28125 C 15.035156 -23.625 12.8125 -20.503906 10.75 -16.921875 C 8.164062 -12.609375 6.875 -9.15625 6.875 -6.5625 C 6.875 -3.976562 7.703125 -2.6875 9.359375 -2.6875 C 13.335938 -2.6875 18.546875 -8.789062 24.984375 -21 C 26.242188 -23.457031 27.304688 -25.132812 28.171875 -26.03125 C 29.035156 -26.925781 30.128906 -27.375 31.453125 -27.375 C 31.722656 -27.375 32.40625 -27.273438 33.5 -27.078125 C 34.59375 -26.878906 35.40625 -26.847656 35.9375 -26.984375 Z M 35.9375 -26.984375 "/></g></g></g><g fill="#c4ad5d" fill-opacity="1"><g transform="translate(269.8732, 549.75136)"><g><path d="M 31.34375 -26.875 C 31.34375 -28.664062 30.445312 -29.5625 28.65625 -29.5625 C 26.007812 -29.5625 22.941406 -28.050781 19.453125 -25.03125 C 15.972656 -22.007812 13.070312 -18.84375 10.75 -15.53125 C 9.75 -13.601562 8.929688 -11.175781 8.296875 -8.25 C 7.671875 -5.332031 7.359375 -3.3125 7.359375 -2.1875 C 7.359375 -1.0625 7.554688 -0.332031 7.953125 0 L 1.6875 0 C 0.6875 0 0.4375 -0.878906 0.9375 -2.640625 C 1.4375 -4.398438 2.117188 -6.304688 2.984375 -8.359375 C 3.847656 -10.421875 4.925781 -12.796875 6.21875 -15.484375 C 7.507812 -18.171875 8.453125 -20.210938 9.046875 -21.609375 C 3.609375 -11.316406 0.09375 -5.40625 -1.5 -3.875 C -2.164062 -3.28125 -2.5 -3.484375 -2.5 -4.484375 C -2.5 -4.679688 -2.429688 -4.910156 -2.296875 -5.171875 C 0.0234375 -8.222656 4.65625 -16.519531 11.59375 -30.0625 C 18.53125 -43.601562 23.390625 -52.460938 26.171875 -56.640625 C 28.429688 -59.890625 30.625 -61.515625 32.75 -61.515625 C 32.75 -61.515625 32.78125 -61.515625 32.84375 -61.515625 L 33.34375 -61.515625 C 33.40625 -61.515625 33.984375 -61.414062 35.078125 -61.21875 C 36.179688 -61.019531 36.992188 -60.988281 37.515625 -61.125 C 35.066406 -59.257812 31.6875 -54.992188 27.375 -48.328125 C 23.0625 -41.660156 19.640625 -35.820312 17.109375 -30.8125 C 14.585938 -25.800781 12.898438 -22 12.046875 -19.40625 C 18.078125 -26.90625 23.484375 -31.550781 28.265625 -33.34375 C 30.523438 -34.070312 32.316406 -34.4375 33.640625 -34.4375 C 36.554688 -34.4375 38.015625 -33.210938 38.015625 -30.765625 C 38.015625 -29.960938 37.847656 -29.066406 37.515625 -28.078125 C 36.585938 -25.554688 34.679688 -23.28125 31.796875 -21.25 C 28.910156 -19.226562 25.742188 -18.050781 22.296875 -17.71875 C 21.492188 -15.863281 21.09375 -14.15625 21.09375 -12.59375 C 21.09375 -11.03125 21.257812 -9.617188 21.59375 -8.359375 C 22.394531 -5.171875 23.890625 -3.210938 26.078125 -2.484375 C 26.535156 -2.359375 27 -2.296875 27.46875 -2.296875 C 29.320312 -2.296875 31.515625 -3.457031 34.046875 -5.78125 C 36.097656 -8.03125 38.785156 -12.570312 42.109375 -19.40625 C 42.566406 -20.269531 42.925781 -20.550781 43.1875 -20.25 C 43.457031 -19.957031 43.59375 -19.675781 43.59375 -19.40625 C 43.59375 -19.144531 43.09375 -17.851562 42.09375 -15.53125 C 41.101562 -13.207031 39.710938 -10.648438 37.921875 -7.859375 C 34.140625 -2.148438 29.957031 0.703125 25.375 0.703125 C 22.59375 0.703125 20.4375 -0.09375 18.90625 -1.6875 C 16.71875 -3.945312 15.625 -6.898438 15.625 -10.546875 C 15.625 -12.410156 16.117188 -14.300781 17.109375 -16.21875 C 18.109375 -18.144531 19.269531 -19.175781 20.59375 -19.3125 C 20.800781 -19.3125 21.003906 -19.3125 21.203125 -19.3125 C 23.523438 -19.3125 25.796875 -20.207031 28.015625 -22 C 30.234375 -23.789062 31.34375 -25.414062 31.34375 -26.875 Z M 31.34375 -26.875 "/></g></g></g><g fill="#c4ad5d" fill-opacity="1"><g transform="translate(306.005893, 549.75136)"><g><path d="M 14.234375 -1.890625 C 15.097656 -1.753906 15.691406 -1.6875 16.015625 -1.6875 C 18.671875 -1.6875 21.296875 -3.25 23.890625 -6.375 C 25.273438 -8.09375 27.757812 -12.4375 31.34375 -19.40625 C 31.476562 -19.738281 31.710938 -19.90625 32.046875 -19.90625 C 32.640625 -19.976562 32.9375 -19.75 32.9375 -19.21875 C 32.9375 -19.082031 32.785156 -18.695312 32.484375 -18.0625 C 32.191406 -17.4375 31.910156 -16.804688 31.640625 -16.171875 C 31.378906 -15.546875 30.945312 -14.632812 30.34375 -13.4375 C 29.75 -12.238281 29.238281 -11.273438 28.8125 -10.546875 C 28.382812 -9.816406 27.835938 -8.921875 27.171875 -7.859375 C 26.503906 -6.796875 25.835938 -5.96875 25.171875 -5.375 L 23.09375 -3.1875 C 21.957031 -2.0625 20.628906 -1.265625 19.109375 -0.796875 C 16.648438 -0.00390625 14.257812 0.0625 11.9375 -0.59375 C 10.414062 0.0625 9.054688 0.390625 7.859375 0.390625 C 3.148438 0.390625 0.296875 -1.460938 -0.703125 -5.171875 C -0.898438 -6.035156 -1 -7.082031 -1 -8.3125 C -1 -9.539062 -0.585938 -10.71875 0.234375 -11.84375 C 1.066406 -12.96875 1.945312 -13.566406 2.875 -13.640625 C 6.257812 -20.078125 9.148438 -25.882812 11.546875 -31.0625 C 14.203125 -36.695312 17.285156 -39.515625 20.796875 -39.515625 C 21.722656 -39.515625 22.632812 -39.296875 23.53125 -38.859375 C 24.425781 -38.429688 24.757812 -37.953125 24.53125 -37.421875 C 24.300781 -36.898438 23.820312 -36.800781 23.09375 -37.125 C 22.363281 -37.457031 21.734375 -37.625 21.203125 -37.625 C 20.671875 -37.625 20.203125 -37.523438 19.796875 -37.328125 C 17.546875 -36.265625 16.421875 -33.976562 16.421875 -30.46875 C 16.421875 -28.601562 16.6875 -27.070312 17.21875 -25.875 C 17.75 -24.6875 18.34375 -23.394531 19 -22 C 20.53125 -18.550781 21.296875 -15.726562 21.296875 -13.53125 C 21.296875 -11.34375 20.597656 -9.1875 19.203125 -7.0625 C 17.804688 -4.9375 16.148438 -3.210938 14.234375 -1.890625 Z M 10.84375 -2.59375 C 13.757812 -4.84375 15.21875 -8.488281 15.21875 -13.53125 C 15.21875 -15.59375 14.984375 -18.414062 14.515625 -22 C 14.054688 -25.582031 13.828125 -28.003906 13.828125 -29.265625 C 13.828125 -30.523438 13.863281 -31.390625 13.9375 -31.859375 C 8.882812 -21.765625 5.765625 -15.625 4.578125 -13.4375 C 5.960938 -13.4375 6.65625 -12.441406 6.65625 -10.453125 C 6.65625 -6.535156 8.050781 -3.914062 10.84375 -2.59375 Z M 3.375 -5.28125 C 3.375 -4.875 3.410156 -4.441406 3.484375 -3.984375 C 4.015625 -2.191406 5.238281 -1.296875 7.15625 -1.296875 C 7.957031 -1.296875 8.625 -1.425781 9.15625 -1.6875 C 6.695312 -3.21875 5.367188 -5.707031 5.171875 -9.15625 C 3.972656 -7.957031 3.375 -6.664062 3.375 -5.28125 Z M 3.375 -5.28125 "/></g></g></g><g fill="#c4ad5d" fill-opacity="1"><g transform="translate(331.487901, 549.75136)"><g><path d="M 23.390625 -4.484375 C 23.390625 -2.617188 24.054688 -1.6875 25.390625 -1.6875 C 28.503906 -1.6875 32.914062 -7.53125 38.625 -19.21875 C 39.09375 -20.144531 39.507812 -20.507812 39.875 -20.3125 C 40.238281 -20.113281 40.421875 -19.847656 40.421875 -19.515625 C 40.421875 -19.179688 40.035156 -18.234375 39.265625 -16.671875 C 38.503906 -15.109375 37.742188 -13.613281 36.984375 -12.1875 C 36.222656 -10.757812 35.109375 -8.882812 33.640625 -6.5625 C 30.585938 -1.925781 27.335938 0.390625 23.890625 0.390625 C 21.628906 0.390625 19.835938 -0.535156 18.515625 -2.390625 C 17.921875 -3.253906 17.625 -4.429688 17.625 -5.921875 C 17.625 -7.410156 17.953125 -9.21875 18.609375 -11.34375 C 19.273438 -13.46875 21.101562 -16.921875 24.09375 -21.703125 C 24.820312 -22.898438 25.1875 -23.84375 25.1875 -24.53125 C 25.1875 -25.226562 24.617188 -25.578125 23.484375 -25.578125 C 22.359375 -25.578125 20.203125 -24.085938 17.015625 -21.109375 C 12.242188 -16.722656 7.601562 -10.148438 3.09375 -1.390625 C 2.625 -0.398438 1.394531 0.09375 -0.59375 0.09375 C -2.382812 0.226562 -3.515625 0.429688 -3.984375 0.703125 C 8.628906 -25.515625 17.753906 -43.800781 23.390625 -54.15625 C 24.648438 -56.476562 25.757812 -58.101562 26.71875 -59.03125 C 27.6875 -59.957031 28.832031 -60.421875 30.15625 -60.421875 C 30.488281 -60.421875 31.1875 -60.335938 32.25 -60.171875 C 33.3125 -60.003906 34.109375 -59.957031 34.640625 -60.03125 C 32.648438 -57.96875 29.082031 -52.273438 23.9375 -42.953125 C 18.789062 -33.628906 13.863281 -24.15625 9.15625 -14.53125 C 12.28125 -18.445312 15.082031 -21.5 17.5625 -23.6875 C 20.050781 -25.882812 23.085938 -27.957031 26.671875 -29.90625 C 30.253906 -31.863281 32.878906 -32.84375 34.546875 -32.84375 C 34.941406 -32.84375 35.304688 -32.78125 35.640625 -32.65625 C 27.472656 -18.320312 23.390625 -8.929688 23.390625 -4.484375 Z M 23.390625 -4.484375 "/></g></g></g><g fill="#c4ad5d" fill-opacity="1"><g transform="translate(364.53489, 549.75136)"><g/></g></g><g fill="#c4ad5d" fill-opacity="1"><g transform="translate(390.31552, 549.75136)"><g><path d="M 15.828125 -45.984375 C 12.640625 -39.085938 11.046875 -32.914062 11.046875 -27.46875 C 11.046875 -16.257812 14.894531 -9.394531 22.59375 -6.875 C 24.84375 -6.269531 27.144531 -5.96875 29.5 -5.96875 C 31.863281 -5.96875 34.238281 -6.269531 36.625 -6.875 C 41.40625 -8.132812 45.6875 -10.023438 49.46875 -12.546875 C 53.25 -15.066406 55.640625 -17.488281 56.640625 -19.8125 C 59.296875 -25.976562 62.148438 -29.0625 65.203125 -29.0625 C 66.722656 -29.0625 67.75 -28.203125 68.28125 -26.484375 C 68.550781 -25.816406 68.617188 -25.085938 68.484375 -24.296875 C 67.816406 -19.117188 66.390625 -13.988281 64.203125 -8.90625 C 62.015625 -3.832031 58.925781 1.988281 54.9375 8.5625 C 62.90625 8.625 70.175781 9.488281 76.75 11.15625 C 78.132812 11.476562 78.828125 11.941406 78.828125 12.546875 C 78.828125 13.273438 77.867188 13.40625 75.953125 12.9375 C 71.367188 11.75 64.765625 11.15625 56.140625 11.15625 C 55.335938 11.15625 54.472656 11.15625 53.546875 11.15625 C 49.503906 16.988281 44.113281 22.144531 37.375 26.625 C 30.632812 31.101562 24.082031 34.175781 17.71875 35.84375 C 14.195312 36.769531 11.207031 37.234375 8.75 37.234375 C 6.300781 37.234375 4.242188 36.929688 2.578125 36.328125 C -2.265625 34.535156 -4.6875 32.179688 -4.6875 29.265625 C -4.6875 28.398438 -4.453125 27.472656 -3.984375 26.484375 C -2.191406 22.492188 2.515625 18.8125 10.140625 15.4375 C 15.921875 12.84375 22.007812 11.082031 28.40625 10.15625 C 34.8125 9.226562 42 8.695312 49.96875 8.5625 C 54.875 0.269531 58.222656 -7.890625 60.015625 -15.921875 L 60.421875 -17.625 C 57.234375 -14.570312 53.628906 -11.863281 49.609375 -9.5 C 45.597656 -7.144531 42.097656 -5.503906 39.109375 -4.578125 C 34.335938 -3.054688 30.40625 -2.296875 27.3125 -2.296875 C 24.226562 -2.296875 21.523438 -2.722656 19.203125 -3.578125 C 14.953125 -5.046875 11.503906 -7.96875 8.859375 -12.34375 C 6.003906 -16.988281 4.578125 -22.53125 4.578125 -28.96875 C 4.578125 -35.40625 6.269531 -42.304688 9.65625 -49.671875 C 5.269531 -54.179688 3.078125 -58.972656 3.078125 -64.046875 C 3.078125 -69.128906 5.132812 -73.960938 9.25 -78.546875 C 10.050781 -79.410156 10.632812 -79.722656 11 -79.484375 C 11.363281 -79.253906 11.210938 -78.675781 10.546875 -77.75 C 7.554688 -73.757812 6.0625 -69.742188 6.0625 -65.703125 C 6.0625 -61.054688 7.789062 -56.707031 11.25 -52.65625 C 11.644531 -53.519531 12.375 -54.816406 13.4375 -56.546875 C 18.613281 -65.035156 25.644531 -71.535156 34.53125 -76.046875 C 41.5 -79.628906 48.238281 -81.421875 54.75 -81.421875 C 56.539062 -81.421875 58.332031 -81.289062 60.125 -81.03125 C 68.6875 -79.707031 74.457031 -76.191406 77.4375 -70.484375 C 78.632812 -68.222656 79.234375 -65.78125 79.234375 -63.15625 C 79.234375 -60.539062 78.40625 -57.738281 76.75 -54.75 C 73.03125 -48.3125 66.523438 -43.800781 57.234375 -41.21875 C 52.328125 -39.820312 47.316406 -39.125 42.203125 -39.125 C 31.453125 -39.125 22.660156 -41.410156 15.828125 -45.984375 Z M 57.03125 -78.34375 C 51.320312 -78.34375 45.285156 -76.414062 38.921875 -72.5625 C 29.554688 -66.988281 22.285156 -58.992188 17.109375 -48.578125 C 20.234375 -46.191406 23.835938 -44.5 27.921875 -43.5 C 32.003906 -42.507812 35.269531 -42.015625 37.71875 -42.015625 C 51.726562 -42.015625 62.316406 -45.757812 69.484375 -53.25 C 73.066406 -57.101562 74.859375 -60.957031 74.859375 -64.8125 C 74.859375 -70.914062 71.4375 -75.03125 64.59375 -77.15625 C 62.070312 -77.945312 59.550781 -78.34375 57.03125 -78.34375 Z M 0.390625 29.96875 C 0.390625 31.820312 1.984375 33.082031 5.171875 33.75 C 6.234375 34.007812 7.394531 34.140625 8.65625 34.140625 C 13.363281 34.140625 19.335938 32.445312 26.578125 29.0625 C 35.734375 24.882812 43 18.945312 48.375 11.25 C 41.40625 11.445312 35.300781 11.976562 30.0625 12.84375 C 22.488281 13.96875 15.285156 16.722656 8.453125 21.109375 C 3.078125 24.554688 0.390625 27.507812 0.390625 29.96875 Z M 0.390625 29.96875 "/></g></g></g><g fill="#c4ad5d" fill-opacity="1"><g transform="translate(459.893352, 549.75136)"><g><path d="M 2.1875 -5.78125 C 2.1875 -8.625 3.414062 -12.070312 5.875 -16.125 C 4.8125 -16.125 4.515625 -16.65625 4.984375 -17.71875 L 6.765625 -21.203125 C 9.023438 -25.515625 10.882812 -29.164062 12.34375 -32.15625 C 13.007812 -33.550781 14.300781 -34.25 16.21875 -34.25 L 22.296875 -34.25 C 19.910156 -32.519531 17.503906 -29.179688 15.078125 -24.234375 C 12.660156 -19.296875 10.785156 -15.414062 9.453125 -12.59375 C 8.128906 -9.769531 7.46875 -7.628906 7.46875 -6.171875 C 7.46875 -4.710938 7.710938 -3.679688 8.203125 -3.078125 C 8.703125 -2.484375 9.382812 -2.1875 10.25 -2.1875 C 11.507812 -2.1875 13.269531 -3.515625 15.53125 -6.171875 C 19.050781 -10.285156 23.992188 -18.945312 30.359375 -32.15625 C 31.085938 -33.550781 32.382812 -34.25 34.25 -34.25 L 39.625 -34.25 C 38.15625 -33.113281 37.003906 -31.945312 36.171875 -30.75 C 35.347656 -29.5625 34.207031 -27.441406 32.75 -24.390625 C 28.769531 -16.421875 26.546875 -11.144531 26.078125 -8.5625 C 25.878906 -7.632812 25.78125 -6.769531 25.78125 -5.96875 C 25.78125 -3.84375 26.507812 -2.71875 27.96875 -2.59375 C 31.550781 -2.59375 35.96875 -8.132812 41.21875 -19.21875 C 41.613281 -20.144531 42.007812 -20.507812 42.40625 -20.3125 C 42.800781 -20.113281 43 -19.847656 43 -19.515625 C 43 -19.179688 42.703125 -18.414062 42.109375 -17.21875 C 41.515625 -16.03125 40.929688 -14.867188 40.359375 -13.734375 C 39.796875 -12.609375 38.929688 -11.066406 37.765625 -9.109375 C 36.609375 -7.148438 35.535156 -5.609375 34.546875 -4.484375 C 31.953125 -1.554688 29.410156 -0.09375 26.921875 -0.09375 C 24.429688 -0.09375 22.722656 -1.191406 21.796875 -3.390625 C 21.398438 -4.378906 21.203125 -5.632812 21.203125 -7.15625 C 21.203125 -8.6875 21.535156 -10.582031 22.203125 -12.84375 C 17.359375 -4.34375 12.878906 -0.09375 8.765625 -0.09375 C 5.179688 -0.09375 3.085938 -1.585938 2.484375 -4.578125 C 2.285156 -4.910156 2.1875 -5.3125 2.1875 -5.78125 Z M 2.1875 -5.78125 "/></g></g></g><g fill="#c4ad5d" fill-opacity="1"><g transform="translate(495.428811, 549.75136)"><g><path d="M 10.34375 -29.171875 C 10.539062 -29.566406 10.640625 -30.09375 10.640625 -30.75 C 10.640625 -31.414062 10.210938 -32.28125 9.359375 -33.34375 L 14.828125 -33.453125 C 16.347656 -33.453125 17.238281 -33.164062 17.5 -32.59375 C 17.769531 -32.03125 17.578125 -31.15625 16.921875 -29.96875 L 8.953125 -11.34375 C 7.296875 -7.425781 5.238281 -3.046875 2.78125 1.796875 C 5.363281 0.796875 7.253906 0.03125 8.453125 -0.5 C 9.648438 -1.03125 11.09375 -1.988281 12.78125 -3.375 C 14.476562 -4.769531 15.9375 -6.378906 17.15625 -8.203125 C 18.382812 -10.035156 20.460938 -13.707031 23.390625 -19.21875 C 23.847656 -20.144531 24.257812 -20.507812 24.625 -20.3125 C 24.988281 -20.113281 25.171875 -19.847656 25.171875 -19.515625 C 25.171875 -19.179688 24.625 -17.898438 23.53125 -15.671875 C 22.4375 -13.453125 21.328125 -11.378906 20.203125 -9.453125 C 19.078125 -7.523438 17.617188 -5.566406 15.828125 -3.578125 C 14.035156 -1.585938 12.039062 0 9.84375 1.1875 C 7.65625 2.382812 4.738281 3.648438 1.09375 4.984375 C -4.019531 14.265625 -9.195312 21.097656 -14.4375 25.484375 C -16.425781 27.140625 -18.78125 28.546875 -21.5 29.703125 C -24.226562 30.867188 -27.066406 31.453125 -30.015625 31.453125 C -32.972656 31.453125 -35.25 30.835938 -36.84375 29.609375 C -38.4375 28.390625 -39.234375 26.914062 -39.234375 25.1875 C -39.234375 23.457031 -38.734375 21.5 -37.734375 19.3125 C -36.003906 15.925781 -32.882812 13.207031 -28.375 11.15625 C -24.988281 9.5625 -20.507812 8.082031 -14.9375 6.71875 C -9.363281 5.351562 -5.78125 4.441406 -4.1875 3.984375 C -2.53125 1.128906 -1.550781 -0.609375 -1.25 -1.234375 C -0.945312 -1.867188 1.457031 -6.832031 5.96875 -16.125 C 4.90625 -16.125 4.609375 -16.65625 5.078125 -17.71875 Z M -35.84375 21.609375 C -36.570312 23.066406 -36.9375 24.390625 -36.9375 25.578125 C -36.9375 26.773438 -36.472656 27.722656 -35.546875 28.421875 C -34.617188 29.117188 -33.488281 29.46875 -32.15625 29.46875 C -28.3125 29.46875 -24.164062 27.476562 -19.71875 23.5 C -13.476562 17.914062 -8.929688 12.472656 -6.078125 7.171875 C -17.097656 10.085938 -23.96875 12.144531 -26.6875 13.34375 C -31 15.195312 -34.050781 17.953125 -35.84375 21.609375 Z M 19.40625 -38.71875 C 18.476562 -37.925781 17.445312 -37.53125 16.3125 -37.53125 C 15.1875 -37.53125 14.320312 -37.894531 13.71875 -38.625 C 13.125 -39.351562 12.828125 -39.984375 12.828125 -40.515625 C 12.828125 -41.046875 12.878906 -41.640625 12.984375 -42.296875 C 13.085938 -42.960938 13.601562 -43.691406 14.53125 -44.484375 C 15.457031 -45.285156 16.484375 -45.6875 17.609375 -45.6875 C 18.742188 -45.6875 19.625 -45.335938 20.25 -44.640625 C 20.882812 -43.941406 21.203125 -43.328125 21.203125 -42.796875 C 21.203125 -42.273438 21.132812 -41.664062 21 -40.96875 C 20.863281 -40.269531 20.332031 -39.519531 19.40625 -38.71875 Z M 19.40625 -38.71875 "/></g></g></g><g fill="#c4ad5d" fill-opacity="1"><g transform="translate(513.047241, 549.75136)"><g><path d="M 35.9375 -26.984375 C 34.738281 -25.785156 33.046875 -23.078125 30.859375 -18.859375 C 28.671875 -14.648438 27.359375 -11.5 26.921875 -9.40625 C 26.492188 -7.3125 26.28125 -5.617188 26.28125 -4.328125 C 26.28125 -3.035156 26.78125 -2.390625 27.78125 -2.390625 C 29.039062 -2.390625 30.597656 -3.550781 32.453125 -5.875 C 35.171875 -9.257812 37.859375 -13.671875 40.515625 -19.109375 C 40.773438 -19.710938 41.070312 -20.046875 41.40625 -20.109375 C 41.9375 -20.304688 42.203125 -20.109375 42.203125 -19.515625 C 42.203125 -19.179688 42.101562 -18.78125 41.90625 -18.3125 C 35.800781 -5.96875 30.660156 0.203125 26.484375 0.203125 C 24.554688 0.203125 22.992188 -0.726562 21.796875 -2.59375 C 21.203125 -3.582031 20.90625 -4.90625 20.90625 -6.5625 C 20.90625 -8.226562 21.238281 -10.253906 21.90625 -12.640625 C 16.59375 -4.078125 12.007812 0.203125 8.15625 0.203125 C 7.09375 0.203125 6.132812 -0.128906 5.28125 -0.796875 C 3.289062 -2.191406 2.296875 -4.582031 2.296875 -7.96875 C 2.296875 -14.46875 5.113281 -21.070312 10.75 -27.78125 C 13.9375 -31.488281 17.851562 -33.910156 22.5 -35.046875 C 23.757812 -35.367188 24.953125 -35.53125 26.078125 -35.53125 C 29.128906 -35.53125 31.71875 -34.472656 33.84375 -32.359375 C 34.507812 -31.617188 34.707031 -30.914062 34.4375 -30.25 C 34.175781 -29.59375 33.613281 -29.332031 32.75 -29.46875 C 32.019531 -31.851562 30.425781 -33.046875 27.96875 -33.046875 C 25.113281 -33.046875 21.597656 -30.789062 17.421875 -26.28125 C 15.035156 -23.625 12.8125 -20.503906 10.75 -16.921875 C 8.164062 -12.609375 6.875 -9.15625 6.875 -6.5625 C 6.875 -3.976562 7.703125 -2.6875 9.359375 -2.6875 C 13.335938 -2.6875 18.546875 -8.789062 24.984375 -21 C 26.242188 -23.457031 27.304688 -25.132812 28.171875 -26.03125 C 29.035156 -26.925781 30.128906 -27.375 31.453125 -27.375 C 31.722656 -27.375 32.40625 -27.273438 33.5 -27.078125 C 34.59375 -26.878906 35.40625 -26.847656 35.9375 -26.984375 Z M 35.9375 -26.984375 "/></g></g></g><g fill="#c4ad5d" fill-opacity="1"><g transform="translate(547.885939, 549.75136)"><g><path d="M 19.109375 -39.921875 C 19.109375 -36.929688 17.21875 -34.109375 13.4375 -31.453125 C 14.757812 -31.390625 16.53125 -31.359375 18.75 -31.359375 C 20.976562 -31.359375 23.785156 -31.523438 27.171875 -31.859375 C 27.304688 -31.660156 27.375 -31.128906 27.375 -30.265625 C 27.375 -29.398438 26.972656 -28.117188 26.171875 -26.421875 C 25.378906 -24.734375 24.664062 -23.273438 24.03125 -22.046875 C 23.40625 -20.816406 22.804688 -19.65625 22.234375 -18.5625 C 21.671875 -17.46875 21.039062 -16.125 20.34375 -14.53125 C 19.65625 -12.9375 19.078125 -11.476562 18.609375 -10.15625 C 16.953125 -5.113281 17.21875 -2.59375 19.40625 -2.59375 C 22.195312 -2.59375 26.3125 -8.132812 31.75 -19.21875 C 32.21875 -20.070312 32.597656 -20.398438 32.890625 -20.203125 C 33.191406 -20.003906 33.34375 -19.753906 33.34375 -19.453125 C 33.34375 -19.160156 32.910156 -18.132812 32.046875 -16.375 C 31.179688 -14.613281 30.25 -12.800781 29.25 -10.9375 C 28.257812 -9.082031 26.703125 -6.929688 24.578125 -4.484375 C 22.054688 -1.429688 19.632812 0.09375 17.3125 0.09375 C 14.726562 0.09375 12.9375 -1.460938 11.9375 -4.578125 C 11.738281 -5.171875 11.640625 -6.066406 11.640625 -7.265625 C 11.640625 -8.460938 12.019531 -10.054688 12.78125 -12.046875 C 13.550781 -14.035156 14.765625 -16.457031 16.421875 -19.3125 C 18.078125 -22.164062 19.003906 -23.835938 19.203125 -24.328125 C 19.398438 -24.828125 19.5 -25.3125 19.5 -25.78125 C 19.5 -27.84375 16.847656 -28.9375 11.546875 -29.0625 L 10.34375 -25.875 C 6.164062 -14.925781 2.148438 -7.59375 -1.703125 -3.875 C -2.359375 -3.28125 -2.6875 -3.484375 -2.6875 -4.484375 C -2.6875 -4.679688 -2.625 -4.910156 -2.5 -5.171875 C 1.21875 -10.085938 4.4375 -15.894531 7.15625 -22.59375 C 9.882812 -29.300781 11.773438 -35.671875 12.828125 -41.703125 C 13.234375 -43.765625 14.164062 -44.796875 15.625 -44.796875 C 17.082031 -44.796875 18.144531 -43.867188 18.8125 -42.015625 C 19.007812 -41.410156 19.109375 -40.710938 19.109375 -39.921875 Z M 19.109375 -39.921875 "/></g></g></g><g fill="#c4ad5d" fill-opacity="1"><g transform="translate(573.76611, 549.75136)"><g><path d="M 35.9375 -26.984375 C 34.738281 -25.785156 33.046875 -23.078125 30.859375 -18.859375 C 28.671875 -14.648438 27.359375 -11.5 26.921875 -9.40625 C 26.492188 -7.3125 26.28125 -5.617188 26.28125 -4.328125 C 26.28125 -3.035156 26.78125 -2.390625 27.78125 -2.390625 C 29.039062 -2.390625 30.597656 -3.550781 32.453125 -5.875 C 35.171875 -9.257812 37.859375 -13.671875 40.515625 -19.109375 C 40.773438 -19.710938 41.070312 -20.046875 41.40625 -20.109375 C 41.9375 -20.304688 42.203125 -20.109375 42.203125 -19.515625 C 42.203125 -19.179688 42.101562 -18.78125 41.90625 -18.3125 C 35.800781 -5.96875 30.660156 0.203125 26.484375 0.203125 C 24.554688 0.203125 22.992188 -0.726562 21.796875 -2.59375 C 21.203125 -3.582031 20.90625 -4.90625 20.90625 -6.5625 C 20.90625 -8.226562 21.238281 -10.253906 21.90625 -12.640625 C 16.59375 -4.078125 12.007812 0.203125 8.15625 0.203125 C 7.09375 0.203125 6.132812 -0.128906 5.28125 -0.796875 C 3.289062 -2.191406 2.296875 -4.582031 2.296875 -7.96875 C 2.296875 -14.46875 5.113281 -21.070312 10.75 -27.78125 C 13.9375 -31.488281 17.851562 -33.910156 22.5 -35.046875 C 23.757812 -35.367188 24.953125 -35.53125 26.078125 -35.53125 C 29.128906 -35.53125 31.71875 -34.472656 33.84375 -32.359375 C 34.507812 -31.617188 34.707031 -30.914062 34.4375 -30.25 C 34.175781 -29.59375 33.613281 -29.332031 32.75 -29.46875 C 32.019531 -31.851562 30.425781 -33.046875 27.96875 -33.046875 C 25.113281 -33.046875 21.597656 -30.789062 17.421875 -26.28125 C 15.035156 -23.625 12.8125 -20.503906 10.75 -16.921875 C 8.164062 -12.609375 6.875 -9.15625 6.875 -6.5625 C 6.875 -3.976562 7.703125 -2.6875 9.359375 -2.6875 C 13.335938 -2.6875 18.546875 -8.789062 24.984375 -21 C 26.242188 -23.457031 27.304688 -25.132812 28.171875 -26.03125 C 29.035156 -26.925781 30.128906 -27.375 31.453125 -27.375 C 31.722656 -27.375 32.40625 -27.273438 33.5 -27.078125 C 34.59375 -26.878906 35.40625 -26.847656 35.9375 -26.984375 Z M 35.9375 -26.984375 "/></g></g></g><g fill="#c4ad5d" fill-opacity="1"><g transform="translate(608.604808, 549.75136)"><g><path d="M 3.1875 -7.96875 C 3.1875 -13.46875 5.84375 -22.691406 11.15625 -35.640625 L 5.96875 -35.640625 C 5.632812 -35.640625 5.414062 -35.820312 5.3125 -36.1875 C 5.21875 -36.550781 5.253906 -36.914062 5.421875 -37.28125 C 5.585938 -37.644531 5.835938 -37.828125 6.171875 -37.828125 L 12.140625 -37.828125 C 14.535156 -43.066406 16.757812 -47.445312 18.8125 -50.96875 C 20.875 -54.488281 22.765625 -56.859375 24.484375 -58.078125 C 26.210938 -59.304688 27.457031 -59.921875 28.21875 -59.921875 C 28.976562 -59.921875 29.523438 -59.859375 29.859375 -59.734375 C 31.390625 -59.003906 32.15625 -57.492188 32.15625 -55.203125 C 32.15625 -52.910156 31.390625 -50.140625 29.859375 -46.890625 C 28.335938 -43.640625 26.847656 -40.617188 25.390625 -37.828125 L 30.15625 -37.828125 C 30.488281 -37.828125 30.703125 -37.644531 30.796875 -37.28125 C 30.898438 -36.914062 30.867188 -36.550781 30.703125 -36.1875 C 30.546875 -35.820312 30.300781 -35.640625 29.96875 -35.640625 L 24.1875 -35.640625 C 20.539062 -29.460938 16.128906 -23.988281 10.953125 -19.21875 L 8.65625 -9.0625 C 8.457031 -8.195312 8.359375 -7.347656 8.359375 -6.515625 C 8.359375 -5.691406 8.585938 -4.847656 9.046875 -3.984375 C 9.515625 -3.117188 10.25 -2.6875 11.25 -2.6875 C 12.375 -2.6875 13.632812 -3.082031 15.03125 -3.875 C 18.21875 -6.269531 21.734375 -11.28125 25.578125 -18.90625 C 25.847656 -19.507812 26.164062 -19.875 26.53125 -20 C 26.894531 -20.132812 27.109375 -20.050781 27.171875 -19.75 C 27.242188 -19.457031 27.144531 -18.976562 26.875 -18.3125 C 24.6875 -13.738281 22.960938 -10.488281 21.703125 -8.5625 C 18.117188 -2.789062 14.300781 0.09375 10.25 0.09375 C 8.195312 0.09375 6.503906 -0.664062 5.171875 -2.1875 C 3.847656 -3.71875 3.1875 -5.644531 3.1875 -7.96875 Z M 23.1875 -37.828125 C 27.570312 -45.660156 29.765625 -51.101562 29.765625 -54.15625 C 29.765625 -55.476562 29.53125 -56.140625 29.0625 -56.140625 C 28.332031 -56.140625 27.222656 -55.078125 25.734375 -52.953125 C 24.242188 -50.835938 21.738281 -45.796875 18.21875 -37.828125 Z M 21.90625 -35.640625 L 17.21875 -35.640625 C 16.425781 -33.773438 14.632812 -29.359375 11.84375 -22.390625 C 15.425781 -26.109375 18.78125 -30.523438 21.90625 -35.640625 Z M 21.90625 -35.640625 "/></g></g></g><g fill="#c4ad5d" fill-opacity="1"><g transform="translate(628.512628, 549.75136)"><g><path d="M 19.3125 -38.71875 C 18.382812 -37.925781 17.351562 -37.53125 16.21875 -37.53125 C 15.09375 -37.53125 14.195312 -37.925781 13.53125 -38.71875 C 12.875 -39.519531 12.609375 -40.484375 12.734375 -41.609375 C 12.941406 -42.734375 13.507812 -43.691406 14.4375 -44.484375 C 15.363281 -45.285156 16.390625 -45.6875 17.515625 -45.6875 C 18.648438 -45.6875 19.5625 -45.285156 20.25 -44.484375 C 20.945312 -43.691406 21.195312 -42.734375 21 -41.609375 C 20.800781 -40.484375 20.238281 -39.519531 19.3125 -38.71875 Z M 9.5625 -2.1875 C 10.820312 -2.1875 12.144531 -2.816406 13.53125 -4.078125 C 15.988281 -6.535156 19.109375 -11.546875 22.890625 -19.109375 C 23.359375 -20.109375 23.828125 -20.410156 24.296875 -20.015625 C 24.421875 -19.878906 24.484375 -19.660156 24.484375 -19.359375 C 24.484375 -19.054688 24.21875 -18.328125 23.6875 -17.171875 C 23.15625 -16.015625 22.675781 -14.96875 22.25 -14.03125 C 21.820312 -13.101562 20.992188 -11.59375 19.765625 -9.5 C 18.535156 -7.414062 17.421875 -5.804688 16.421875 -4.671875 C 13.703125 -1.554688 11.128906 0 8.703125 0 C 6.285156 0 4.546875 -0.726562 3.484375 -2.1875 C 2.421875 -3.644531 1.890625 -5.269531 1.890625 -7.0625 C 1.890625 -8.851562 2.320312 -10.8125 3.1875 -12.9375 L 9.5625 -29.171875 C 9.6875 -29.566406 9.75 -30.09375 9.75 -30.75 C 9.75 -31.414062 9.351562 -32.28125 8.5625 -33.34375 L 14.03125 -33.453125 C 15.5625 -33.453125 16.457031 -33.164062 16.71875 -32.59375 C 16.988281 -32.03125 16.789062 -31.15625 16.125 -29.96875 L 8.15625 -11.34375 C 7.03125 -8.894531 6.46875 -6.804688 6.46875 -5.078125 C 6.46875 -3.148438 7.5 -2.1875 9.5625 -2.1875 Z M 9.5625 -2.1875 "/></g></g></g><g fill="#c4ad5d" fill-opacity="1"><g transform="translate(358.188413, 610.788037)"><g><path d="M 13.921875 -9.0625 C 15.078125 -8.8125 15.96875 -8.3125 16.59375 -7.5625 C 17.226562 -6.820312 17.546875 -5.863281 17.546875 -4.6875 C 17.546875 -3.1875 16.988281 -2.03125 15.875 -1.21875 C 14.757812 -0.40625 13.113281 0 10.9375 0 L 2.859375 0 L 2.859375 -17.5625 L 10.4375 -17.5625 C 12.394531 -17.5625 13.910156 -17.164062 14.984375 -16.375 C 16.066406 -15.59375 16.609375 -14.484375 16.609375 -13.046875 C 16.609375 -12.078125 16.367188 -11.253906 15.890625 -10.578125 C 15.421875 -9.898438 14.765625 -9.394531 13.921875 -9.0625 Z M 4.71875 -16.03125 L 4.71875 -9.65625 L 10.3125 -9.65625 C 11.738281 -9.65625 12.832031 -9.925781 13.59375 -10.46875 C 14.363281 -11.019531 14.75 -11.8125 14.75 -12.84375 C 14.75 -13.882812 14.363281 -14.675781 13.59375 -15.21875 C 12.832031 -15.757812 11.738281 -16.03125 10.3125 -16.03125 Z M 10.921875 -1.53125 C 12.492188 -1.53125 13.679688 -1.796875 14.484375 -2.328125 C 15.285156 -2.867188 15.6875 -3.707031 15.6875 -4.84375 C 15.6875 -7.03125 14.097656 -8.125 10.921875 -8.125 L 4.71875 -8.125 L 4.71875 -1.53125 Z M 10.921875 -1.53125 "/></g></g></g><g fill="#c4ad5d" fill-opacity="1"><g transform="translate(383.268968, 610.788037)"><g><path d="M 13.875 -4.6875 L 4.09375 -4.6875 L 1.984375 0 L 0.046875 0 L 8.078125 -17.5625 L 9.90625 -17.5625 L 17.9375 0 L 15.984375 0 Z M 13.203125 -6.203125 L 8.984375 -15.640625 L 4.765625 -6.203125 Z M 13.203125 -6.203125 "/></g></g></g><g fill="#c4ad5d" fill-opacity="1"><g transform="translate(407.421637, 610.788037)"><g><path d="M 17.546875 -17.5625 L 17.546875 0 L 16.015625 0 L 4.71875 -14.25 L 4.71875 0 L 2.859375 0 L 2.859375 -17.5625 L 4.390625 -17.5625 L 15.703125 -3.3125 L 15.703125 -17.5625 Z M 17.546875 -17.5625 "/></g></g></g><g fill="#c4ad5d" fill-opacity="1"><g transform="translate(433.981799, 610.788037)"><g><path d="M 8.3125 -8.25 L 4.71875 -4.625 L 4.71875 0 L 2.859375 0 L 2.859375 -17.5625 L 4.71875 -17.5625 L 4.71875 -6.953125 L 15.03125 -17.5625 L 17.171875 -17.5625 L 9.5625 -9.609375 L 17.6875 0 L 15.484375 0 Z M 8.3125 -8.25 "/></g></g></g></svg>